<?xml version="1.0" encoding="UTF-8"?>
<!DOCTYPE svg PUBLIC "-//W3C//DTD SVG 1.1//EN" "http://www.w3.org/Graphics/SVG/1.1/DTD/svg11.dtd">
<svg xmlns="http://www.w3.org/2000/svg" version="1.1" width="1024px" height="1024px" style="shape-rendering:geometricPrecision; text-rendering:geometricPrecision; image-rendering:optimizeQuality; fill-rule:evenodd; clip-rule:evenodd" xmlns:xlink="http://www.w3.org/1999/xlink">
<g><path style="opacity:1" fill="#fefdfe" d="M -0.5,-0.5 C 340.833,-0.5 682.167,-0.5 1023.5,-0.5C 1023.5,340.833 1023.5,682.167 1023.5,1023.5C 682.167,1023.5 340.833,1023.5 -0.5,1023.5C -0.5,682.167 -0.5,340.833 -0.5,-0.5 Z"/></g>
<g><path style="opacity:1" fill="#0368d0" d="M 803.5,84.5 C 613.675,84.3584 423.675,84.525 233.5,85C 224.62,85.3475 215.786,86.1809 207,87.5C 205.615,87.4857 204.449,87.1524 203.5,86.5C 210.758,85.1335 218.092,84.3001 225.5,84C 418.174,83.1808 610.841,83.3475 803.5,84.5 Z"/></g>
<g><path style="opacity:1" fill="#2d90db" d="M 803.5,84.5 C 866.441,91.948 909.941,124.948 934,183.5C 940.308,204.016 943.141,225.016 942.5,246.5C 941.819,420.337 941.152,594.337 940.5,768.5C 940.501,772.349 940.835,776.016 941.5,779.5C 937.069,842.909 906.402,888.409 849.5,916C 835.043,922.031 820.043,926.031 804.5,928C 611.518,929.655 418.518,929.988 225.5,929C 151.146,920.25 104.313,879.75 85,807.5C 83.3377,796.545 82.0044,785.545 81,774.5C 79.381,604.506 79.0476,434.506 80,264.5C 79.4086,240.596 81.4086,216.929 86,193.5C 95.9557,158.203 116.122,130.536 146.5,110.5C 160.515,102.479 174.515,95.8123 188.5,90.5C 193.191,88.409 198.191,87.0756 203.5,86.5C 204.449,87.1524 205.615,87.4857 207,87.5C 215.786,86.1809 224.62,85.3475 233.5,85C 423.675,84.525 613.675,84.3584 803.5,84.5 Z"/></g>
<g><path style="opacity:1" fill="#1775d5" d="M 188.5,90.5 C 174.515,95.8123 160.515,102.479 146.5,110.5C 159.135,101.185 173.135,94.5179 188.5,90.5 Z"/></g>
<g><path style="opacity:1" fill="#2480dc" d="M 353.5,148.5 C 353.5,157.833 353.5,167.167 353.5,176.5C 319.165,176.333 284.832,176.5 250.5,177C 245.71,178.563 241.044,180.396 236.5,182.5C 241.36,178.408 247.026,175.908 253.5,175C 286.498,174.5 319.498,174.333 352.5,174.5C 352.174,165.651 352.507,156.984 353.5,148.5 Z"/></g>
<g><path style="opacity:1" fill="#2482dd" d="M 640.5,144.5 C 639.546,155.115 639.213,165.782 639.5,176.5C 554.833,176.5 470.167,176.5 385.5,176.5C 383.5,176.5 381.5,176.5 379.5,176.5C 379.5,166.5 379.5,156.5 379.5,146.5C 380.499,155.082 380.832,164.415 380.5,174.5C 466.5,174.5 552.5,174.5 638.5,174.5C 638.334,164.828 638.5,155.161 639,145.5C 639.333,144.833 639.667,144.167 640,143.5C 640.399,143.728 640.565,144.062 640.5,144.5 Z"/></g>
<g><path style="opacity:1" fill="#2382de" d="M 769.5,176.5 C 736.833,176.5 704.167,176.5 671.5,176.5C 669.5,176.5 667.5,176.5 665.5,176.5C 665.787,165.782 665.454,155.115 664.5,144.5C 664.435,144.062 664.601,143.728 665,143.5C 665.333,144.167 665.667,144.833 666,145.5C 666.5,155.161 666.666,164.828 666.5,174.5C 700.168,174.333 733.835,174.5 767.5,175C 769.343,175.159 770.009,175.659 769.5,176.5 Z"/></g>
<g><path style="opacity:1" fill="#fdf6db" d="M 353.5,148.5 C 353.833,148.5 354.167,148.5 354.5,148.5C 354.5,165.167 354.5,181.833 354.5,198.5C 341.949,205.987 338.449,216.654 344,230.5C 354.059,245.513 366.892,248.347 382.5,239C 393.635,227.021 394.302,214.521 384.5,201.5C 385.493,193.35 385.826,185.017 385.5,176.5C 470.167,176.5 554.833,176.5 639.5,176.5C 639.799,184.253 639.466,191.92 638.5,199.5C 623.919,212.861 623.919,226.361 638.5,240C 654.198,247.878 666.698,244.378 676,229.5C 679.917,217.779 677.417,207.779 668.5,199.5C 669.496,199.414 670.329,199.748 671,200.5C 671.5,192.507 671.666,184.507 671.5,176.5C 704.167,176.5 736.833,176.5 769.5,176.5C 784.638,180.969 794.971,190.636 800.5,205.5C 800.5,206.5 800.5,207.5 800.5,208.5C 799.732,209.263 799.232,210.263 799,211.5C 798.667,228.833 798.333,246.167 798,263.5C 796.783,261.48 796.617,259.48 797.5,257.5C 796.453,254.876 794.787,254.042 792.5,255C 793.451,254.282 793.617,253.449 793,252.5C 791.159,254.159 789.992,256.159 789.5,258.5C 786.951,258.441 784.951,259.441 783.5,261.5C 781.997,260.41 781.664,259.243 782.5,258C 778.914,256.4 778.247,254.233 780.5,251.5C 779.975,250.808 779.308,250.308 778.5,250C 780.167,249.667 781.833,249.333 783.5,249C 781.071,248.549 780.904,247.715 783,246.5C 785.55,247.98 787.383,247.313 788.5,244.5C 786.972,243.139 785.305,241.972 783.5,241C 786,239.833 788.5,238.667 791,237.5C 791.333,237.833 791.667,238.167 792,238.5C 792.262,233.789 791.429,233.123 789.5,236.5C 788.549,237.326 787.549,237.492 786.5,237C 790.486,234.42 790.486,233.086 786.5,233C 787.167,231 788.5,229.667 790.5,229C 788.671,228.727 787.171,227.893 786,226.5C 786.275,230.483 785.275,230.483 783,226.5C 781.057,228.715 779.391,228.715 778,226.5C 776.333,227.167 774.667,227.833 773,228.5C 771.602,227.949 770.268,227.616 769,227.5C 767.601,228.227 766.101,228.727 764.5,229C 766.155,230.444 766.822,232.278 766.5,234.5C 761.222,235.605 761.388,236.605 767,237.5C 768.84,236.167 769.34,236.334 768.5,238C 769.938,238.219 771.271,238.719 772.5,239.5C 771.975,240.192 771.308,240.692 770.5,241C 771.793,241.49 773.127,241.657 774.5,241.5C 774.202,238.664 774.869,238.164 776.5,240C 775.124,242.442 773.29,243.275 771,242.5C 769.325,245.524 767.825,248.19 766.5,250.5C 764.578,250.134 762.578,249.968 760.5,250C 760.957,249.586 761.291,249.086 761.5,248.5C 757.288,248.194 756.622,246.694 759.5,244C 758.068,243.73 757.068,244.396 756.5,246C 752.595,246.248 749.761,248.082 748,251.5C 746.467,252.695 744.967,252.695 743.5,251.5C 742.749,252.376 742.249,253.376 742,254.5C 739.626,251.712 738.293,252.046 738,255.5C 737.581,254.328 736.915,253.328 736,252.5C 734.647,253.685 733.48,255.019 732.5,256.5C 730.833,255.167 729.167,255.167 727.5,256.5C 727.12,258.021 726.954,259.687 727,261.5C 725.605,260.185 724.605,260.519 724,262.5C 723,261.833 722,261.167 721,260.5C 720.163,262.007 718.996,262.507 717.5,262C 718.345,260.442 717.679,259.442 715.5,259C 716.96,258.189 717.293,257.355 716.5,256.5C 713.936,258.019 713.936,259.519 716.5,261C 714.661,262.132 712.661,262.965 710.5,263.5C 710.891,262.282 710.224,261.448 708.5,261C 708.833,260.667 709.167,260.333 709.5,260C 707.833,259.333 706.167,259.333 704.5,260C 705.5,260.333 706.5,260.667 707.5,261C 704.681,261.068 702.514,262.234 701,264.5C 699.605,263.185 698.605,263.519 698,265.5C 697.5,265 697,264.5 696.5,264C 697.517,262.951 697.684,261.784 697,260.5C 694.43,261.009 692.097,262.009 690,263.5C 689.5,263 689,262.5 688.5,262C 690.484,259.866 691.818,257.366 692.5,254.5C 694.338,253.811 696.005,253.478 697.5,253.5C 696.672,252.585 695.672,251.919 694.5,251.5C 693.28,252.711 692.113,252.711 691,251.5C 690.65,253.429 689.983,255.429 689,257.5C 689.536,255.553 689.202,253.553 688,251.5C 687.691,252.766 687.191,253.933 686.5,255C 686.833,255.333 687.167,255.667 687.5,256C 685.376,257.582 683.21,257.749 681,256.5C 680.308,257.025 679.808,257.692 679.5,258.5C 680.167,258.833 680.833,259.167 681.5,259.5C 681.291,260.086 680.957,260.586 680.5,261C 682.007,261.837 682.507,263.004 682,264.5C 680.667,263.833 679.333,263.167 678,262.5C 677.544,263.744 678.044,264.577 679.5,265C 677.892,265.658 676.725,265.158 676,263.5C 673.489,266.343 670.656,268.843 667.5,271C 674.169,270.358 674.169,271.024 667.5,273C 666.366,274.016 666.699,274.683 668.5,275C 667.128,275.402 665.795,275.902 664.5,276.5C 663.494,276.062 663.494,275.396 664.5,274.5C 663.271,273.719 661.938,273.219 660.5,273C 661.5,272.667 662.5,272.333 663.5,272C 662.682,270.823 661.682,269.49 660.5,268C 660.63,266.941 661.13,266.108 662,265.5C 663.333,265.5 664.667,265.5 666,265.5C 666.692,264.975 667.192,264.308 667.5,263.5C 664.838,262.939 663.171,261.939 662.5,260.5C 662.025,261.92 660.525,262.92 658,263.5C 656.349,262.258 654.515,261.424 652.5,261C 655.264,260.468 657.93,259.634 660.5,258.5C 661.086,258.709 661.586,259.043 662,259.5C 664.425,258.383 666.591,256.883 668.5,255C 668,254.833 667.5,254.667 667,254.5C 665.549,255.355 664.049,255.522 662.5,255C 663.711,255.893 663.711,256.726 662.5,257.5C 660.885,256.846 659.218,256.346 657.5,256C 659.901,255.195 659.734,254.362 657,253.5C 656.667,254.167 656.333,254.833 656,255.5C 655,254.167 654,254.167 653,255.5C 652.167,254.5 651.333,253.5 650.5,252.5C 649.833,253.167 649.167,253.833 648.5,254.5C 647.5,253.167 646.5,253.167 645.5,254.5C 644.667,253.5 643.833,252.5 643,251.5C 641.028,253.432 638.862,253.932 636.5,253C 637.634,254.016 637.301,254.683 635.5,255C 636.749,256.824 637.915,256.657 639,254.5C 639.507,255.996 639.007,257.163 637.5,258C 638.167,258.333 638.833,258.667 639.5,259C 637.302,259.373 635.135,259.873 633,260.5C 631.72,260.387 630.887,259.72 630.5,258.5C 631.956,258.678 633.289,257.844 634.5,256C 633.5,255.667 632.5,255.333 631.5,255C 639.697,250.746 639.364,249.746 630.5,252C 631.5,252.333 632.5,252.667 633.5,253C 632.234,253.309 631.067,253.809 630,254.5C 629.667,253.833 629.333,253.167 629,252.5C 628.667,253.833 628.333,255.167 628,256.5C 626.413,255.273 625.079,255.606 624,257.5C 621.597,255.695 619.93,253.362 619,250.5C 618.667,251.5 618.333,252.5 618,253.5C 615.684,253.097 613.517,252.431 611.5,251.5C 609.716,254.957 607.05,257.29 603.5,258.5C 603.286,256.856 603.62,255.356 604.5,254C 602.899,253.727 601.399,253.227 600,252.5C 597.904,253.715 598.071,254.549 600.5,255C 600.034,256.299 600.034,257.799 600.5,259.5C 574.412,221.967 538.412,205.8 492.5,211C 448.6,219.401 419.934,244.901 406.5,287.5C 405.903,287.265 405.57,286.765 405.5,286C 407.442,280.853 408.942,275.686 410,270.5C 409.228,271.849 408.061,272.682 406.5,273C 407.167,273.333 407.833,273.667 408.5,274C 404.782,276.298 400.782,276.965 396.5,276C 398.5,275.667 400.5,275.333 402.5,275C 401.879,272.502 402.545,270.168 404.5,268C 403.874,267.25 403.374,266.416 403,265.5C 401.927,266.28 400.76,266.113 399.5,265C 402.264,263.456 402.097,262.289 399,261.5C 397.881,262.552 397.381,263.719 397.5,265C 393.484,264.787 393.484,265.787 397.5,268C 396.167,269 396.167,270 397.5,271C 396.667,271.167 395.833,271.333 395,271.5C 393.089,270.593 391.256,270.593 389.5,271.5C 388.859,269.704 387.859,268.204 386.5,267C 388.707,264.016 388.207,263.85 385,266.5C 384.333,265.167 383.333,264.167 382,263.5C 381.373,261.414 381.873,261.081 383.5,262.5C 386.148,260.743 385.814,259.41 382.5,258.5C 381.174,259.99 379.674,261.324 378,262.5C 377.667,261.833 377.333,261.167 377,260.5C 376.1,261.77 374.934,262.77 373.5,263.5C 375.838,265.049 375.338,266.049 372,266.5C 369.611,265.744 367.445,266.411 365.5,268.5C 363.299,266.944 363.299,265.777 365.5,265C 362.336,262.254 359.002,259.754 355.5,257.5C 353.092,258.628 351.592,259.961 351,261.5C 349.233,259.836 349.733,258.669 352.5,258C 351.5,257.333 350.5,257.333 349.5,258C 347.914,261.007 345.747,263.507 343,265.5C 341.569,263.14 341.402,260.973 342.5,259C 340.444,258.689 338.444,258.189 336.5,257.5C 336.002,258.603 335.669,259.603 335.5,260.5C 334.094,259.573 332.594,258.573 331,257.5C 330.167,258.333 329.333,259.167 328.5,260C 331.228,260.639 331.728,261.806 330,263.5C 329.667,262.833 329.333,262.167 329,261.5C 325.509,263.839 321.675,265.505 317.5,266.5C 317.511,265.559 317.011,264.892 316,264.5C 313.762,265.899 313.095,265.232 314,262.5C 314.833,261.667 315.667,260.833 316.5,260C 315.069,259.535 313.903,258.701 313,257.5C 311.667,258.833 310.333,260.167 309,261.5C 308.621,259.43 309.455,257.93 311.5,257C 305.464,257.607 300.631,260.441 297,265.5C 296.493,264.004 296.993,262.837 298.5,262C 297.833,261.667 297.167,261.333 296.5,261C 297.659,259.173 298.992,257.507 300.5,256C 295.279,255.458 295.279,254.624 300.5,253.5C 298.243,252.002 296.243,252.835 294.5,256C 292.095,256.281 292.095,255.615 294.5,254C 294.167,253.667 293.833,253.333 293.5,253C 298.029,251.445 298.696,248.779 295.5,245C 293.443,244.695 291.443,244.695 289.5,245C 292.47,243.847 295.137,242.18 297.5,240C 295.944,238.401 294.277,236.901 292.5,235.5C 290.705,237.703 288.371,238.869 285.5,239C 286.448,239.483 287.448,239.649 288.5,239.5C 288.708,241.92 288.374,244.253 287.5,246.5C 286.635,247.583 285.635,247.749 284.5,247C 286.929,246.549 287.096,245.715 285,244.5C 283.155,245.05 281.655,246.05 280.5,247.5C 281.355,248.293 282.189,247.96 283,246.5C 284.664,248.755 286.497,250.089 288.5,250.5C 286.988,251.862 285.488,252.196 284,251.5C 280.568,254.034 280.735,254.701 284.5,253.5C 285.719,254.646 287.052,255.646 288.5,256.5C 288.333,256.833 288.167,257.167 288,257.5C 283.741,256.623 279.574,256.956 275.5,258.5C 274.167,257.833 272.833,257.167 271.5,256.5C 270.033,257.695 268.533,257.695 267,256.5C 265.278,256.611 265.112,257.111 266.5,258C 265.78,260.122 264.613,260.622 263,259.5C 262.196,260.804 261.029,261.471 259.5,261.5C 258.425,260.301 257.425,259.134 256.5,258C 259.277,255.827 259.11,255.327 256,256.5C 254.357,255.488 253.19,254.488 252.5,253.5C 249.937,253.737 249.937,254.237 252.5,255C 251.833,255.333 251.167,255.667 250.5,256C 251.949,257.117 253.616,257.784 255.5,258C 253.718,258.814 252.218,259.981 251,261.5C 247.934,261.998 245.767,261.498 244.5,260C 244.5,261.333 244.5,262.667 244.5,264C 243.789,265.255 242.956,266.421 242,267.5C 240.933,266.809 239.766,266.309 238.5,266C 239.634,264.984 239.301,264.317 237.5,264C 237.833,263.667 238.167,263.333 238.5,263C 236.895,260.878 235.729,259.045 235,257.5C 233.379,257.725 232.212,258.558 231.5,260C 233.107,263.326 232.274,264.492 229,263.5C 228,264.5 227,265.5 226,266.5C 225.383,265.551 225.549,264.718 226.5,264C 225.167,264 223.833,264 222.5,264C 223.227,262.601 223.727,261.101 224,259.5C 224.249,260.624 224.749,261.624 225.5,262.5C 226.711,261.726 226.711,260.893 225.5,260C 227.5,259.333 228.833,258 229.5,256C 227.667,255.5 226.5,254.333 226,252.5C 224.556,254.155 222.722,254.822 220.5,254.5C 221.327,241.181 221.66,228.181 221.5,215.5C 221.253,214.287 220.586,213.62 219.5,213.5C 219.672,208.652 220.672,203.985 222.5,199.5C 226.381,193.276 231.048,187.609 236.5,182.5C 241.044,180.396 245.71,178.563 250.5,177C 284.832,176.5 319.165,176.333 353.5,176.5C 353.5,167.167 353.5,157.833 353.5,148.5 Z"/></g>
<g><path style="opacity:1" fill="#f5df9e" d="M 665.5,176.5 C 667.5,176.5 669.5,176.5 671.5,176.5C 671.666,184.507 671.5,192.507 671,200.5C 670.329,199.748 669.496,199.414 668.5,199.5C 667.391,199.443 666.391,199.11 665.5,198.5C 665.5,191.167 665.5,183.833 665.5,176.5 Z"/></g>
<g><path style="opacity:1" fill="#f5e3aa" d="M 379.5,176.5 C 381.5,176.5 383.5,176.5 385.5,176.5C 385.826,185.017 385.493,193.35 384.5,201.5C 383.167,200.833 381.833,200.167 380.5,199.5C 379.534,191.92 379.201,184.253 379.5,176.5 Z"/></g>
<g><path style="opacity:1" fill="#fca101" d="M 379.5,146.5 C 379.5,156.5 379.5,166.5 379.5,176.5C 379.201,184.253 379.534,191.92 380.5,199.5C 379.887,206.398 379.053,213.398 378,220.5C 372.525,227.037 366.025,228.204 358.5,224C 356.383,222.269 354.883,220.102 354,217.5C 353.21,211.085 353.376,204.752 354.5,198.5C 354.5,181.833 354.5,165.167 354.5,148.5C 355.816,141.69 359.983,138.357 367,138.5C 372.959,138.553 377.126,141.22 379.5,146.5 Z"/></g>
<g><path style="opacity:1" fill="#fec11b" d="M 361.5,147.5 C 364.685,147.02 367.519,147.686 370,149.5C 370.667,171.833 370.667,194.167 370,216.5C 366.057,219.366 362.39,219.032 359,215.5C 358.333,194.167 358.333,172.833 359,151.5C 359.662,150.016 360.496,148.683 361.5,147.5 Z"/></g>
<g><path style="opacity:1" fill="#faa408" d="M 664.5,144.5 C 665.454,155.115 665.787,165.782 665.5,176.5C 665.5,183.833 665.5,191.167 665.5,198.5C 665.884,205.589 665.384,212.589 664,219.5C 660.373,225.158 655.207,227.325 648.5,226C 643.901,224.402 641.068,221.235 640,216.5C 639.827,210.652 639.327,204.985 638.5,199.5C 639.466,191.92 639.799,184.253 639.5,176.5C 639.213,165.782 639.546,155.115 640.5,144.5C 644.819,138.912 650.486,137.079 657.5,139C 660.305,140.382 662.639,142.216 664.5,144.5 Z"/></g>
<g><path style="opacity:1" fill="#fec41e" d="M 648.5,146.5 C 651.199,146.466 653.699,147.133 656,148.5C 656.833,166.176 656.666,183.843 655.5,201.5C 651.682,204.391 648.182,204.057 645,200.5C 644.333,183.833 644.333,167.167 645,150.5C 646.102,149.051 647.269,147.718 648.5,146.5 Z"/></g>
<g><path style="opacity:1" fill="#237ec3" d="M 802.5,209.5 C 815.155,216.456 822.655,227.123 825,241.5C 825.667,391.5 825.667,541.5 825,691.5C 817.355,715.426 800.855,726.593 775.5,725C 610.164,725.131 444.83,725.131 279.5,725C 272.178,724.449 265.511,722.115 259.5,718C 253.964,713.629 248.964,708.796 244.5,703.5C 419.573,704.828 594.24,704.828 768.5,703.5C 785.273,700.061 795.94,690.061 800.5,673.5C 801.341,674.009 801.841,673.343 802,671.5C 802.5,517.5 802.667,363.5 802.5,209.5 Z"/></g>
<g><path style="opacity:1" fill="#fbf4d7" d="M 800.5,208.5 C 801.497,356.46 801.83,504.46 801.5,652.5C 800.833,653.5 800.167,654.5 799.5,655.5C 799.488,604.413 799.488,553.079 799.5,501.5C 799.667,456.832 799.5,412.165 799,367.5C 797.373,370.572 795.207,371.072 792.5,369C 792.833,368.667 793.167,368.333 793.5,368C 792.04,366.418 790.373,365.085 788.5,364C 789.624,363.751 790.624,363.251 791.5,362.5C 790.609,361.41 789.609,361.41 788.5,362.5C 788.167,361.833 787.833,361.167 787.5,360.5C 785.179,361.563 784.179,363.063 784.5,365C 780.148,365.419 779.815,366.086 783.5,367C 782.476,368.367 782.976,369.2 785,369.5C 786.235,368.385 787.402,368.385 788.5,369.5C 788.833,368.833 789.167,368.167 789.5,367.5C 790.308,367.808 790.975,368.308 791.5,369C 790.44,370.298 789.274,371.465 788,372.5C 787.228,372.355 786.561,372.022 786,371.5C 784.47,372.92 782.637,373.92 780.5,374.5C 780,375.5 779.5,376.5 779,377.5C 778.5,376.333 777.667,375.5 776.5,375C 777.46,373.581 778.293,372.081 779,370.5C 779.718,371.451 780.551,371.617 781.5,371C 780.833,369 779.5,367.667 777.5,367C 777.833,366.667 778.167,366.333 778.5,366C 776.945,364.354 775.279,364.021 773.5,365C 775.234,363.266 777.234,361.932 779.5,361C 777.22,360.767 775.22,359.934 773.5,358.5C 770.833,359.5 770.833,360.5 773.5,361.5C 772.265,364.044 771.099,364.044 770,361.5C 769.5,362 769,362.5 768.5,363C 769.759,363.923 771.092,364.757 772.5,365.5C 770.865,366.681 769.198,366.681 767.5,365.5C 763.553,367.357 763.553,366.523 767.5,363C 765.792,361.938 765.126,360.771 765.5,359.5C 764.572,361.335 763.406,361.668 762,360.5C 758.643,361.742 758.81,362.576 762.5,363C 758.505,364.738 754.505,365.405 750.5,365C 749.5,365.333 748.5,365.667 747.5,366C 748.34,367.666 747.84,367.833 746,366.5C 745.71,368.044 745.044,369.377 744,370.5C 742.68,370.201 741.18,370.034 739.5,370C 740.517,368.951 740.684,367.784 740,366.5C 738.647,367.685 737.48,369.019 736.5,370.5C 737.025,371.192 737.692,371.692 738.5,372C 733.054,373.841 732.054,372.841 735.5,369C 733.065,368.147 730.731,367.147 728.5,366C 728.64,364.403 728.64,362.903 728.5,361.5C 726.041,357.587 723.041,354.087 719.5,351C 720.187,349.838 720.353,348.672 720,347.5C 718.98,348.891 718.147,350.391 717.5,352C 713.755,351.965 713.088,352.965 715.5,355C 711.826,355.288 710.993,356.788 713,359.5C 714.903,356.045 717.237,355.712 720,358.5C 720.606,360.829 719.94,361.162 718,359.5C 714.93,360.481 712.097,361.147 709.5,361.5C 707.424,359.712 705.257,358.046 703,356.5C 698.274,358.539 698.441,359.706 703.5,360C 701.782,360.346 700.115,360.846 698.5,361.5C 698.331,360.603 697.998,359.603 697.5,358.5C 696.188,359.46 694.854,359.294 693.5,358C 694.167,357.333 694.833,356.667 695.5,356C 694.167,354 692.5,352.333 690.5,351C 692.277,348.848 693.777,349.015 695,351.5C 697.176,351.012 699.009,350.012 700.5,348.5C 699.891,345.163 698.724,344.83 697,347.5C 695.68,347.201 694.18,347.034 692.5,347C 693.833,346.333 693.833,345.667 692.5,345C 695.028,344.331 695.028,343.498 692.5,342.5C 689.043,344.26 685.71,345.426 682.5,346C 684.5,346.333 686.5,346.667 688.5,347C 685.997,348.22 683.331,348.553 680.5,348C 679.747,349.487 678.914,349.654 678,348.5C 676.493,349.505 675.327,350.838 674.5,352.5C 670.889,351.91 667.555,352.91 664.5,355.5C 663.402,354.385 662.235,354.385 661,355.5C 660.05,354.978 659.216,354.311 658.5,353.5C 657.035,354.609 656.035,354.109 655.5,352C 656.167,351.667 656.833,351.333 657.5,351C 654.833,350.333 652.167,350.333 649.5,351C 648.304,351.654 648.304,352.154 649.5,352.5C 651.098,351.515 652.765,351.349 654.5,352C 652.278,352.695 650.111,353.528 648,354.5C 647.448,353.014 645.948,351.848 643.5,351C 644.738,351.077 645.738,350.911 646.5,350.5C 643.893,349.682 641.226,349.182 638.5,349C 639.448,348.517 640.448,348.351 641.5,348.5C 656.721,350.791 671.388,348.957 685.5,343C 664.679,340.961 646.513,333.128 631,319.5C 626.943,314.442 623.276,309.108 620,303.5C 618.549,301.536 616.716,300.203 614.5,299.5C 612.406,285.215 607.739,271.881 600.5,259.5C 600.034,257.799 600.034,256.299 600.5,255C 598.071,254.549 597.904,253.715 600,252.5C 601.399,253.227 602.899,253.727 604.5,254C 603.62,255.356 603.286,256.856 603.5,258.5C 607.05,257.29 609.716,254.957 611.5,251.5C 613.517,252.431 615.684,253.097 618,253.5C 618.333,252.5 618.667,251.5 619,250.5C 619.93,253.362 621.597,255.695 624,257.5C 625.079,255.606 626.413,255.273 628,256.5C 628.333,255.167 628.667,253.833 629,252.5C 629.333,253.167 629.667,253.833 630,254.5C 631.067,253.809 632.234,253.309 633.5,253C 632.5,252.667 631.5,252.333 630.5,252C 639.364,249.746 639.697,250.746 631.5,255C 632.5,255.333 633.5,255.667 634.5,256C 633.289,257.844 631.956,258.678 630.5,258.5C 630.887,259.72 631.72,260.387 633,260.5C 635.135,259.873 637.302,259.373 639.5,259C 638.833,258.667 638.167,258.333 637.5,258C 639.007,257.163 639.507,255.996 639,254.5C 637.915,256.657 636.749,256.824 635.5,255C 637.301,254.683 637.634,254.016 636.5,253C 638.862,253.932 641.028,253.432 643,251.5C 643.833,252.5 644.667,253.5 645.5,254.5C 646.5,253.167 647.5,253.167 648.5,254.5C 649.167,253.833 649.833,253.167 650.5,252.5C 651.333,253.5 652.167,254.5 653,255.5C 654,254.167 655,254.167 656,255.5C 656.333,254.833 656.667,254.167 657,253.5C 659.734,254.362 659.901,255.195 657.5,256C 659.218,256.346 660.885,256.846 662.5,257.5C 663.711,256.726 663.711,255.893 662.5,255C 664.049,255.522 665.549,255.355 667,254.5C 667.5,254.667 668,254.833 668.5,255C 666.591,256.883 664.425,258.383 662,259.5C 661.586,259.043 661.086,258.709 660.5,258.5C 657.93,259.634 655.264,260.468 652.5,261C 654.515,261.424 656.349,262.258 658,263.5C 660.525,262.92 662.025,261.92 662.5,260.5C 663.171,261.939 664.838,262.939 667.5,263.5C 667.192,264.308 666.692,264.975 666,265.5C 664.667,265.5 663.333,265.5 662,265.5C 661.13,266.108 660.63,266.941 660.5,268C 661.682,269.49 662.682,270.823 663.5,272C 662.5,272.333 661.5,272.667 660.5,273C 661.938,273.219 663.271,273.719 664.5,274.5C 663.494,275.396 663.494,276.062 664.5,276.5C 665.795,275.902 667.128,275.402 668.5,275C 666.699,274.683 666.366,274.016 667.5,273C 674.169,271.024 674.169,270.358 667.5,271C 670.656,268.843 673.489,266.343 676,263.5C 676.725,265.158 677.892,265.658 679.5,265C 678.044,264.577 677.544,263.744 678,262.5C 679.333,263.167 680.667,263.833 682,264.5C 682.507,263.004 682.007,261.837 680.5,261C 680.957,260.586 681.291,260.086 681.5,259.5C 680.833,259.167 680.167,258.833 679.5,258.5C 679.808,257.692 680.308,257.025 681,256.5C 683.21,257.749 685.376,257.582 687.5,256C 687.167,255.667 686.833,255.333 686.5,255C 687.191,253.933 687.691,252.766 688,251.5C 689.202,253.553 689.536,255.553 689,257.5C 689.983,255.429 690.65,253.429 691,251.5C 692.113,252.711 693.28,252.711 694.5,251.5C 695.672,251.919 696.672,252.585 697.5,253.5C 696.005,253.478 694.338,253.811 692.5,254.5C 691.818,257.366 690.484,259.866 688.5,262C 689,262.5 689.5,263 690,263.5C 692.097,262.009 694.43,261.009 697,260.5C 697.684,261.784 697.517,262.951 696.5,264C 697,264.5 697.5,265 698,265.5C 698.605,263.519 699.605,263.185 701,264.5C 702.514,262.234 704.681,261.068 707.5,261C 706.5,260.667 705.5,260.333 704.5,260C 706.167,259.333 707.833,259.333 709.5,260C 709.167,260.333 708.833,260.667 708.5,261C 710.224,261.448 710.891,262.282 710.5,263.5C 712.661,262.965 714.661,262.132 716.5,261C 713.936,259.519 713.936,258.019 716.5,256.5C 717.293,257.355 716.96,258.189 715.5,259C 717.679,259.442 718.345,260.442 717.5,262C 718.996,262.507 720.163,262.007 721,260.5C 722,261.167 723,261.833 724,262.5C 724.605,260.519 725.605,260.185 727,261.5C 726.954,259.687 727.12,258.021 727.5,256.5C 729.167,255.167 730.833,255.167 732.5,256.5C 733.48,255.019 734.647,253.685 736,252.5C 736.915,253.328 737.581,254.328 738,255.5C 738.293,252.046 739.626,251.712 742,254.5C 742.249,253.376 742.749,252.376 743.5,251.5C 744.967,252.695 746.467,252.695 748,251.5C 749.761,248.082 752.595,246.248 756.5,246C 757.068,244.396 758.068,243.73 759.5,244C 756.622,246.694 757.288,248.194 761.5,248.5C 761.291,249.086 760.957,249.586 760.5,250C 762.578,249.968 764.578,250.134 766.5,250.5C 767.825,248.19 769.325,245.524 771,242.5C 773.29,243.275 775.124,242.442 776.5,240C 774.869,238.164 774.202,238.664 774.5,241.5C 773.127,241.657 771.793,241.49 770.5,241C 771.308,240.692 771.975,240.192 772.5,239.5C 771.271,238.719 769.938,238.219 768.5,238C 769.34,236.334 768.84,236.167 767,237.5C 761.388,236.605 761.222,235.605 766.5,234.5C 766.822,232.278 766.155,230.444 764.5,229C 766.101,228.727 767.601,228.227 769,227.5C 770.268,227.616 771.602,227.949 773,228.5C 774.667,227.833 776.333,227.167 778,226.5C 779.391,228.715 781.057,228.715 783,226.5C 785.275,230.483 786.275,230.483 786,226.5C 787.171,227.893 788.671,228.727 790.5,229C 788.5,229.667 787.167,231 786.5,233C 790.486,233.086 790.486,234.42 786.5,237C 787.549,237.492 788.549,237.326 789.5,236.5C 791.429,233.123 792.262,233.789 792,238.5C 791.667,238.167 791.333,237.833 791,237.5C 788.5,238.667 786,239.833 783.5,241C 785.305,241.972 786.972,243.139 788.5,244.5C 787.383,247.313 785.55,247.98 783,246.5C 780.904,247.715 781.071,248.549 783.5,249C 781.833,249.333 780.167,249.667 778.5,250C 779.308,250.308 779.975,250.808 780.5,251.5C 778.247,254.233 778.914,256.4 782.5,258C 781.664,259.243 781.997,260.41 783.5,261.5C 784.951,259.441 786.951,258.441 789.5,258.5C 789.992,256.159 791.159,254.159 793,252.5C 793.617,253.449 793.451,254.282 792.5,255C 794.787,254.042 796.453,254.876 797.5,257.5C 796.617,259.48 796.783,261.48 798,263.5C 798.333,246.167 798.667,228.833 799,211.5C 799.232,210.263 799.732,209.263 800.5,208.5 Z"/></g>
<g><path style="opacity:1" fill="#bc600a" d="M 354.5,198.5 C 353.376,204.752 353.21,211.085 354,217.5C 354.883,220.102 356.383,222.269 358.5,224C 366.025,228.204 372.525,227.037 378,220.5C 379.053,213.398 379.887,206.398 380.5,199.5C 381.833,200.167 383.167,200.833 384.5,201.5C 394.302,214.521 393.635,227.021 382.5,239C 366.892,248.347 354.059,245.513 344,230.5C 338.449,216.654 341.949,205.987 354.5,198.5 Z"/></g>
<g><path style="opacity:1" fill="#bc5f09" d="M 665.5,198.5 C 666.391,199.11 667.391,199.443 668.5,199.5C 677.417,207.779 679.917,217.779 676,229.5C 666.698,244.378 654.198,247.878 638.5,240C 623.919,226.361 623.919,212.861 638.5,199.5C 639.327,204.985 639.827,210.652 640,216.5C 641.068,221.235 643.901,224.402 648.5,226C 655.207,227.325 660.373,225.158 664,219.5C 665.384,212.589 665.884,205.589 665.5,198.5 Z"/></g>
<g><path style="opacity:1" fill="#fdf5d7" d="M 406.5,287.5 C 400.053,314.206 403.553,339.539 417,363.5C 425.355,377.334 433.855,391.001 442.5,404.5C 429.927,388.375 419.094,371.042 410,352.5C 408.111,353.097 406.278,353.431 404.5,353.5C 404.704,352.471 404.204,351.471 403,350.5C 402.365,351.966 401.531,353.3 400.5,354.5C 401.529,354.296 402.529,354.796 403.5,356C 401.884,356.615 400.551,357.615 399.5,359C 396.667,358.833 393.833,358.667 391,358.5C 389.7,359.707 388.2,360.374 386.5,360.5C 386.649,361.552 386.483,362.552 386,363.5C 383.593,363.327 381.26,363.327 379,363.5C 377.173,365.24 377.34,366.907 379.5,368.5C 381.102,367.45 381.935,368.117 382,370.5C 382.333,370.167 382.667,369.833 383,369.5C 383.423,370.956 384.256,371.456 385.5,371C 385.167,370.667 384.833,370.333 384.5,370C 386.162,367.709 388.328,365.209 391,362.5C 392.852,364.23 392.686,365.396 390.5,366C 391.424,366.85 391.424,367.85 390.5,369C 388.174,373.33 384.674,376.163 380,377.5C 379.667,376.833 379.333,376.167 379,375.5C 377.604,377.527 375.938,377.86 374,376.5C 373.819,378.674 374.652,380.507 376.5,382C 375.256,382.456 374.423,381.956 374,380.5C 373.333,381.167 372.667,381.833 372,382.5C 371.282,381.549 370.449,381.383 369.5,382C 368.167,382.667 368.167,383.333 369.5,384C 367.447,384.325 365.447,383.991 363.5,383C 364.167,382.667 364.833,382.333 365.5,382C 363.939,381.682 362.772,380.849 362,379.5C 361.085,380.328 360.419,381.328 360,382.5C 359,380.833 358,379.167 357,377.5C 355.266,378.249 353.433,378.749 351.5,379C 350.809,380.067 350.309,381.234 350,382.5C 348.755,382.539 347.422,382.205 346,381.5C 344.263,382.62 342.429,383.62 340.5,384.5C 340.331,382.883 339.997,381.216 339.5,379.5C 338.749,380.376 338.249,381.376 338,382.5C 336.556,380.845 334.722,380.178 332.5,380.5C 332.649,379.448 332.483,378.448 332,377.5C 330.267,379.602 328.267,379.935 326,378.5C 324.601,379.227 323.101,379.727 321.5,380C 322.572,381.284 323.905,381.617 325.5,381C 324.382,382.074 323.382,383.24 322.5,384.5C 321.914,384.291 321.414,383.957 321,383.5C 320.228,384.849 319.061,385.682 317.5,386C 320.192,386.43 322.859,386.263 325.5,385.5C 325.649,386.552 325.483,387.552 325,388.5C 324.667,388.167 324.333,387.833 324,387.5C 323.576,389.615 322.409,390.448 320.5,390C 321.993,388.844 321.826,388.01 320,387.5C 317.765,389.371 315.265,390.871 312.5,392C 313.167,392.333 313.833,392.667 314.5,393C 313.167,393.667 311.833,394.333 310.5,395C 311.956,395.423 312.456,396.256 312,397.5C 310.933,396.809 309.766,396.309 308.5,396C 309.451,395.282 309.617,394.449 309,393.5C 308.311,394.357 307.478,395.023 306.5,395.5C 305.28,394.289 304.113,394.289 303,395.5C 304.274,393.195 306.107,391.028 308.5,389C 304.54,390.159 300.54,391.659 296.5,393.5C 296.002,392.397 295.669,391.397 295.5,390.5C 294.204,392.336 293.37,394.336 293,396.5C 292.581,395.328 291.915,394.328 291,393.5C 289.647,394.685 288.48,396.019 287.5,397.5C 286.914,397.291 286.414,396.957 286,396.5C 282.586,397.394 279.086,398.061 275.5,398.5C 274.033,397.619 272.2,396.619 270,395.5C 266.61,396.732 266.777,397.566 270.5,398C 268.939,398.318 267.772,399.151 267,400.5C 265.667,398.833 264.333,397.167 263,395.5C 260.904,396.715 261.071,397.549 263.5,398C 263.043,398.414 262.709,398.914 262.5,399.5C 263.397,399.669 264.397,400.002 265.5,400.5C 263.579,401.641 261.579,401.808 259.5,401C 260.711,399.887 260.711,398.72 259.5,397.5C 262.298,395.434 261.965,393.934 258.5,393C 259.5,392.667 260.5,392.333 261.5,392C 259.744,391.798 258.078,391.298 256.5,390.5C 257.326,389.549 257.492,388.549 257,387.5C 255.885,389 255.052,390.667 254.5,392.5C 255.262,392.911 256.262,393.077 257.5,393C 256.789,394.255 255.956,395.421 255,396.5C 253.601,392.384 251.101,391.551 247.5,394C 246.167,395 246.167,396 247.5,397C 245.137,397.589 244.137,399.089 244.5,401.5C 242.058,401.354 241.391,402.187 242.5,404C 237.155,404.387 236.488,403.054 240.5,400C 239.711,396.903 238.544,396.736 237,399.5C 236.576,395.81 235.742,395.643 234.5,399C 234.833,399.333 235.167,399.667 235.5,400C 232.074,398.573 229.408,399.906 227.5,404C 227.667,404.5 227.833,405 228,405.5C 229.113,404.289 230.28,404.289 231.5,405.5C 232.298,407.078 232.798,408.744 233,410.5C 234.666,409.66 234.833,410.16 233.5,412C 234.167,412.333 234.833,412.667 235.5,413C 232.429,412.293 229.762,413.293 227.5,416C 228.931,416.465 230.097,417.299 231,418.5C 231.333,418.167 231.667,417.833 232,417.5C 232.791,419.604 234.291,420.937 236.5,421.5C 234.152,422.86 233.985,424.527 236,426.5C 237.726,425.424 239.559,425.257 241.5,426C 239.592,426.913 237.592,427.413 235.5,427.5C 234.328,427.081 233.328,426.415 232.5,425.5C 231.757,426.908 230.923,428.241 230,429.5C 229.383,428.551 229.549,427.718 230.5,427C 228.731,425.981 227.064,425.814 225.5,426.5C 224.169,425.408 223.336,424.074 223,422.5C 222.111,423.888 221.611,423.722 221.5,422C 221.905,421.055 222.572,420.388 223.5,420C 222.186,419.015 221.186,417.848 220.5,416.5C 221.073,362.78 221.073,308.78 220.5,254.5C 222.722,254.822 224.556,254.155 226,252.5C 226.5,254.333 227.667,255.5 229.5,256C 228.833,258 227.5,259.333 225.5,260C 226.711,260.893 226.711,261.726 225.5,262.5C 224.749,261.624 224.249,260.624 224,259.5C 223.727,261.101 223.227,262.601 222.5,264C 223.833,264 225.167,264 226.5,264C 225.549,264.718 225.383,265.551 226,266.5C 227,265.5 228,264.5 229,263.5C 232.274,264.492 233.107,263.326 231.5,260C 232.212,258.558 233.379,257.725 235,257.5C 235.729,259.045 236.895,260.878 238.5,263C 238.167,263.333 237.833,263.667 237.5,264C 239.301,264.317 239.634,264.984 238.5,266C 239.766,266.309 240.933,266.809 242,267.5C 242.956,266.421 243.789,265.255 244.5,264C 244.5,262.667 244.5,261.333 244.5,260C 245.767,261.498 247.934,261.998 251,261.5C 252.218,259.981 253.718,258.814 255.5,258C 253.616,257.784 251.949,257.117 250.5,256C 251.167,255.667 251.833,255.333 252.5,255C 249.937,254.237 249.937,253.737 252.5,253.5C 253.19,254.488 254.357,255.488 256,256.5C 259.11,255.327 259.277,255.827 256.5,258C 257.425,259.134 258.425,260.301 259.5,261.5C 261.029,261.471 262.196,260.804 263,259.5C 264.613,260.622 265.78,260.122 266.5,258C 265.112,257.111 265.278,256.611 267,256.5C 268.533,257.695 270.033,257.695 271.5,256.5C 272.833,257.167 274.167,257.833 275.5,258.5C 279.574,256.956 283.741,256.623 288,257.5C 288.167,257.167 288.333,256.833 288.5,256.5C 287.052,255.646 285.719,254.646 284.5,253.5C 280.735,254.701 280.568,254.034 284,251.5C 285.488,252.196 286.988,251.862 288.5,250.5C 286.497,250.089 284.664,248.755 283,246.5C 282.189,247.96 281.355,248.293 280.5,247.5C 281.655,246.05 283.155,245.05 285,244.5C 287.096,245.715 286.929,246.549 284.5,247C 285.635,247.749 286.635,247.583 287.5,246.5C 288.374,244.253 288.708,241.92 288.5,239.5C 287.448,239.649 286.448,239.483 285.5,239C 288.371,238.869 290.705,237.703 292.5,235.5C 294.277,236.901 295.944,238.401 297.5,240C 295.137,242.18 292.47,243.847 289.5,245C 291.443,244.695 293.443,244.695 295.5,245C 298.696,248.779 298.029,251.445 293.5,253C 293.833,253.333 294.167,253.667 294.5,254C 292.095,255.615 292.095,256.281 294.5,256C 296.243,252.835 298.243,252.002 300.5,253.5C 295.279,254.624 295.279,255.458 300.5,256C 298.992,257.507 297.659,259.173 296.5,261C 297.167,261.333 297.833,261.667 298.5,262C 296.993,262.837 296.493,264.004 297,265.5C 300.631,260.441 305.464,257.607 311.5,257C 309.455,257.93 308.621,259.43 309,261.5C 310.333,260.167 311.667,258.833 313,257.5C 313.903,258.701 315.069,259.535 316.5,260C 315.667,260.833 314.833,261.667 314,262.5C 313.095,265.232 313.762,265.899 316,264.5C 317.011,264.892 317.511,265.559 317.5,266.5C 321.675,265.505 325.509,263.839 329,261.5C 329.333,262.167 329.667,262.833 330,263.5C 331.728,261.806 331.228,260.639 328.5,260C 329.333,259.167 330.167,258.333 331,257.5C 332.594,258.573 334.094,259.573 335.5,260.5C 335.669,259.603 336.002,258.603 336.5,257.5C 338.444,258.189 340.444,258.689 342.5,259C 341.402,260.973 341.569,263.14 343,265.5C 345.747,263.507 347.914,261.007 349.5,258C 350.5,257.333 351.5,257.333 352.5,258C 349.733,258.669 349.233,259.836 351,261.5C 351.592,259.961 353.092,258.628 355.5,257.5C 359.002,259.754 362.336,262.254 365.5,265C 363.299,265.777 363.299,266.944 365.5,268.5C 367.445,266.411 369.611,265.744 372,266.5C 375.338,266.049 375.838,265.049 373.5,263.5C 374.934,262.77 376.1,261.77 377,260.5C 377.333,261.167 377.667,261.833 378,262.5C 379.674,261.324 381.174,259.99 382.5,258.5C 385.814,259.41 386.148,260.743 383.5,262.5C 381.873,261.081 381.373,261.414 382,263.5C 383.333,264.167 384.333,265.167 385,266.5C 388.207,263.85 388.707,264.016 386.5,267C 387.859,268.204 388.859,269.704 389.5,271.5C 391.256,270.593 393.089,270.593 395,271.5C 395.833,271.333 396.667,271.167 397.5,271C 396.167,270 396.167,269 397.5,268C 393.484,265.787 393.484,264.787 397.5,265C 397.381,263.719 397.881,262.552 399,261.5C 402.097,262.289 402.264,263.456 399.5,265C 400.76,266.113 401.927,266.28 403,265.5C 403.374,266.416 403.874,267.25 404.5,268C 402.545,270.168 401.879,272.502 402.5,275C 400.5,275.333 398.5,275.667 396.5,276C 400.782,276.965 404.782,276.298 408.5,274C 407.833,273.667 407.167,273.333 406.5,273C 408.061,272.682 409.228,271.849 410,270.5C 408.942,275.686 407.442,280.853 405.5,286C 405.57,286.765 405.903,287.265 406.5,287.5 Z"/></g>
<g><path style="opacity:1" fill="#1280db" d="M 222.5,199.5 C 220.672,203.985 219.672,208.652 219.5,213.5C 219.5,358.167 219.5,502.833 219.5,647.5C 218.674,651.982 218.174,656.649 218,661.5C 217.333,511.167 217.333,360.833 218,210.5C 218.653,206.347 220.153,202.68 222.5,199.5 Z"/></g>
<g><path style="opacity:1" fill="#f6e09c" d="M 614.5,299.5 C 616.716,300.203 618.549,301.536 620,303.5C 623.276,309.108 626.943,314.442 631,319.5C 646.513,333.128 664.679,340.961 685.5,343C 671.388,348.957 656.721,350.791 641.5,348.5C 636.229,347.603 630.896,346.77 625.5,346C 626.42,349.438 628.087,352.438 630.5,355C 642.713,362.855 655.713,369.188 669.5,374C 675.157,376.493 680.49,379.493 685.5,383C 665.247,381.407 645.914,385.074 627.5,394C 623.89,395.944 620.557,398.277 617.5,401C 630.037,403.743 642.703,405.743 655.5,407C 645.531,411.984 635.531,416.984 625.5,422C 617.688,424.937 609.688,427.27 601.5,429C 600.833,429.667 600.167,430.333 599.5,431C 603.387,434.111 607.72,436.444 612.5,438C 613.833,438.667 613.833,439.333 612.5,440C 602.434,443.467 592.434,447.133 582.5,451C 561.808,463.848 539.808,473.681 516.5,480.5C 548.913,443.685 577.413,404.019 602,361.5C 613.283,342.251 617.45,321.584 614.5,299.5 Z"/></g>
<g><path style="opacity:1" fill="#fa8e00" d="M 600.5,259.5 C 607.739,271.881 612.406,285.215 614.5,299.5C 617.45,321.584 613.283,342.251 602,361.5C 577.413,404.019 548.913,443.685 516.5,480.5C 511.081,483.323 505.748,483.157 500.5,480C 498,477.5 495.5,475 493,472.5C 475.902,449.944 459.069,427.277 442.5,404.5C 433.855,391.001 425.355,377.334 417,363.5C 403.553,339.539 400.053,314.206 406.5,287.5C 419.934,244.901 448.6,219.401 492.5,211C 538.412,205.8 574.412,221.967 600.5,259.5 Z"/></g>
<g><path style="opacity:1" fill="#fcc60a" d="M 498.5,233.5 C 522.066,231.962 543.066,238.462 561.5,253C 586.441,277.262 593.941,306.095 584,339.5C 564.418,380.208 532.252,396.375 487.5,388C 444.076,372.337 425.243,341.504 431,295.5C 440.944,261.052 463.444,240.386 498.5,233.5 Z"/></g>
<g><path style="opacity:1" fill="#f98b00" d="M 506.5,253.5 C 509.97,252.875 512.804,253.875 515,256.5C 515.333,262.5 515.667,268.5 516,274.5C 520.91,276.705 525.743,279.038 530.5,281.5C 535.279,278.224 539.612,274.391 543.5,270C 551.667,268.167 554.833,271.333 553,279.5C 549.333,283.167 545.667,286.833 542,290.5C 541.333,291.833 541.333,293.167 542,294.5C 543.999,298.329 545.833,302.162 547.5,306C 553.167,306.333 558.833,306.667 564.5,307C 568.124,309.161 569.291,312.328 568,316.5C 566.786,318.049 565.286,319.215 563.5,320C 557.833,320.333 552.167,320.667 546.5,321C 544.664,324.518 542.83,328.018 541,331.5C 540.333,332.5 540.333,333.5 541,334.5C 545.368,338.533 549.368,342.866 553,347.5C 553.997,354.833 550.83,357.666 543.5,356C 539.5,353.333 536.167,350 533.5,346C 531.956,344.813 530.289,344.48 528.5,345C 524.259,346.704 520.093,348.538 516,350.5C 515.667,356.167 515.333,361.833 515,367.5C 511.136,372.719 507.136,372.719 503,367.5C 502.667,361.833 502.333,356.167 502,350.5C 496.851,347.328 491.351,345.495 485.5,345C 482.5,349.333 478.833,353 474.5,356C 467.17,357.666 464.003,354.833 465,347.5C 468.632,342.866 472.632,338.533 477,334.5C 475.921,329.487 474.088,324.653 471.5,320C 465.167,319.667 458.833,319.333 452.5,319C 447.167,315 447.167,311 452.5,307C 458.884,306.794 465.217,306.294 471.5,305.5C 473.055,301.389 474.888,297.389 477,293.5C 477.667,292.5 477.667,291.5 477,290.5C 473.633,286.797 469.966,283.464 466,280.5C 463.148,271.682 466.315,268.182 475.5,270C 479.167,273.667 482.833,277.333 486.5,281C 487.5,281.667 488.5,281.667 489.5,281C 493.462,278.436 497.629,276.269 502,274.5C 502.333,268.833 502.667,263.167 503,257.5C 503.69,255.65 504.856,254.316 506.5,253.5 Z"/></g>
<g><path style="opacity:1" fill="#fcc60a" d="M 503.5,290.5 C 522.822,289.323 531.989,298.323 531,317.5C 527.849,328.834 520.349,334.501 508.5,334.5C 491.861,331.917 485.028,322.251 488,305.5C 491.106,298.225 496.272,293.225 503.5,290.5 Z"/></g>
<g><path style="opacity:1" fill="#0054c4" d="M 800.5,205.5 C 801.674,206.514 802.34,207.847 802.5,209.5C 802.667,363.5 802.5,517.5 802,671.5C 801.841,673.343 801.341,674.009 800.5,673.5C 801.29,666.529 801.623,659.529 801.5,652.5C 801.83,504.46 801.497,356.46 800.5,208.5C 800.5,207.5 800.5,206.5 800.5,205.5 Z"/></g>
<g><path style="opacity:1" fill="#fcf3d2" d="M 799.5,501.5 C 798.833,513.673 798.167,526.007 797.5,538.5C 795.602,539.734 793.935,539.401 792.5,537.5C 791.289,538.274 791.289,539.107 792.5,540C 788.973,540.882 788.307,540.382 790.5,538.5C 788.009,537.459 788.009,536.626 790.5,536C 788.291,535.043 788.457,533.876 791,532.5C 791.333,533.167 791.667,533.833 792,534.5C 793.667,534.167 795.333,533.833 797,533.5C 797.798,531.741 797.631,530.074 796.5,528.5C 795.387,530.031 793.887,531.031 792,531.5C 789.44,529.995 787.44,530.662 786,533.5C 784.184,532.671 782.351,531.837 780.5,531C 782.922,528.997 783.755,526.497 783,523.5C 782.667,524.5 782.333,525.5 782,526.5C 780.604,524.473 778.938,524.14 777,525.5C 775.582,522.999 774.582,523.332 774,526.5C 772.044,526.216 769.877,526.216 767.5,526.5C 767.92,528.674 767.92,530.674 767.5,532.5C 766.5,532 765.5,531.5 764.5,531C 764.833,530.667 765.167,530.333 765.5,530C 762.833,529 762.833,528 765.5,527C 762.874,526.785 760.541,526.952 758.5,527.5C 758.291,528.086 757.957,528.586 757.5,529C 761.892,530.527 762.392,532.693 759,535.5C 757.846,533.043 756.512,533.043 755,535.5C 754.25,534.874 753.416,534.374 752.5,534C 752.833,533.667 753.167,533.333 753.5,533C 752.234,532.691 751.067,532.191 750,531.5C 748.144,534.119 745.644,534.952 742.5,534C 743.993,532.844 743.826,532.01 742,531.5C 740.7,532.707 739.2,533.374 737.5,533.5C 737.5,532.5 737.5,531.5 737.5,530.5C 739.199,530.66 740.866,530.494 742.5,530C 741.833,529.667 741.167,529.333 740.5,529C 741.766,528.691 742.933,528.191 744,527.5C 744.333,527.833 744.667,528.167 745,528.5C 745.465,527.069 746.299,525.903 747.5,525C 745.409,523.325 743.242,522.825 741,523.5C 740.009,522.061 738.676,521.061 737,520.5C 736.163,522.007 734.996,522.507 733.5,522C 735.268,519.511 737.435,518.678 740,519.5C 742.196,518.91 744.362,518.243 746.5,517.5C 750.968,519.522 755.635,520.356 760.5,520C 761.056,517.763 762.056,515.763 763.5,514C 763.167,513.667 762.833,513.333 762.5,513C 765.234,512.79 767.734,511.956 770,510.5C 770.324,512.569 771.158,512.902 772.5,511.5C 772.672,513.86 774.339,515.194 777.5,515.5C 780.028,514.831 780.028,513.998 777.5,513C 779.256,512.798 780.922,512.298 782.5,511.5C 782.154,510.304 781.654,510.304 781,511.5C 780.729,509.193 781.895,508.026 784.5,508C 782.863,506.049 781.363,506.216 780,508.5C 779.072,506.665 777.906,506.332 776.5,507.5C 773.539,506.817 773.205,505.984 775.5,505C 774.833,504.333 774.167,503.667 773.5,503C 774.451,502.282 774.617,501.449 774,500.5C 772.406,501.716 770.906,503.049 769.5,504.5C 769.002,503.397 768.669,502.397 768.5,501.5C 767.692,501.808 767.025,502.308 766.5,503C 768.146,504.555 768.479,506.221 767.5,508C 762.184,508.822 758.35,511.655 756,516.5C 754.319,514.706 752.486,514.206 750.5,515C 750.833,514.667 751.167,514.333 751.5,514C 748.057,513.779 747.724,512.779 750.5,511C 749.833,510.667 749.167,510.333 748.5,510C 750.044,509.71 751.377,509.044 752.5,508C 752.167,507.667 751.833,507.333 751.5,507C 752.956,506.577 753.456,505.744 753,504.5C 752.667,504.833 752.333,505.167 752,505.5C 749.211,502.642 746.044,501.309 742.5,501.5C 741.749,502.376 741.249,503.376 741,504.5C 740.054,502.044 740.554,500.044 742.5,498.5C 743.425,499.641 744.259,499.641 745,498.5C 745.333,499.167 745.667,499.833 746,500.5C 746.346,498.152 747.513,496.319 749.5,495C 748.687,493.686 747.687,492.519 746.5,491.5C 747.274,490.289 748.107,490.289 749,491.5C 749.684,490.216 749.517,489.049 748.5,488C 750.608,487.64 752.608,486.973 754.5,486C 754.061,482.535 752.895,482.702 751,486.5C 750.804,484.096 749.638,482.429 747.5,481.5C 746.575,482.641 745.741,482.641 745,481.5C 744.682,483.061 743.849,484.228 742.5,485C 743.678,485.967 745.011,486.467 746.5,486.5C 744.545,488.43 742.879,490.597 741.5,493C 742.715,495.096 743.549,494.929 744,492.5C 744.52,494.289 744.187,495.956 743,497.5C 742.195,495.099 741.362,495.266 740.5,498C 738.432,498.687 736.432,498.52 734.5,497.5C 733.749,498.376 733.249,499.376 733,500.5C 731.908,497.014 730.075,496.681 727.5,499.5C 724.834,498.262 722.168,498.262 719.5,499.5C 720.066,500.291 720.899,500.291 722,499.5C 723.169,500.009 724.002,500.842 724.5,502C 722.978,504.305 720.978,505.805 718.5,506.5C 717.892,510.472 717.392,514.472 717,518.5C 716.208,520.587 715.041,522.421 713.5,524C 714.747,525.458 714.747,526.958 713.5,528.5C 714.922,528.412 716.422,528.412 718,528.5C 718.957,526.291 720.124,526.457 721.5,529C 720.638,531.734 719.805,531.901 719,529.5C 717.376,529.57 715.543,530.07 713.5,531C 714.623,532.044 715.956,532.71 717.5,533C 716.135,534.682 714.635,534.849 713,533.5C 710.579,535.113 708.079,536.447 705.5,537.5C 705.649,536.448 705.483,535.448 705,534.5C 702.872,534.927 700.705,534.427 698.5,533C 698.833,532.667 699.167,532.333 699.5,532C 698.056,531.219 696.723,531.386 695.5,532.5C 696.894,533.687 696.727,534.354 695,534.5C 694.426,533.646 693.759,532.646 693,531.5C 692.055,531.905 691.388,532.572 691,533.5C 690.228,532.151 689.061,531.318 687.5,531C 693.589,530.855 698.923,530.355 703.5,529.5C 705.246,528.999 706.246,528.332 706.5,527.5C 716.879,521.682 718.879,513.682 712.5,503.5C 710.88,501.016 708.547,499.516 705.5,499C 617.167,498.333 528.833,498.333 440.5,499C 528.334,499.167 616.001,499.667 703.5,500.5C 615.166,500.333 526.833,500.5 438.5,501C 429.111,506.483 427.111,513.983 432.5,523.5C 430.801,523.34 429.134,523.506 427.5,524C 428.448,524.483 429.448,524.649 430.5,524.5C 430.5,525.5 430.5,526.5 430.5,527.5C 429.022,527.238 427.689,527.571 426.5,528.5C 425.687,529.814 424.687,530.981 423.5,532C 424.654,532.914 424.487,533.747 423,534.5C 422.667,534.167 422.333,533.833 422,533.5C 421.193,536.973 419.027,539.14 415.5,540C 418.167,539.667 420.833,539.333 423.5,539C 423.5,541 423.5,543 423.5,545C 420.693,547.27 417.693,548.27 414.5,548C 416.234,552.949 415.401,557.449 412,561.5C 409.63,564.039 407.13,566.372 404.5,568.5C 407.094,564.728 409.927,561.061 413,557.5C 414.938,544.101 409.438,539.268 396.5,543C 379.961,561.204 363.794,579.704 348,598.5C 340.179,589.712 332.012,581.212 323.5,573C 314.131,568.852 308.465,571.852 306.5,582C 306.615,584.732 307.448,587.232 309,589.5C 317.396,598.391 325.562,607.391 333.5,616.5C 329.52,612.855 325.52,609.189 321.5,605.5C 320.5,605.833 319.833,606.5 319.5,607.5C 320.326,608.451 320.492,609.451 320,610.5C 319.667,610.167 319.333,609.833 319,609.5C 318.667,610.5 318.333,611.5 318,612.5C 315.399,611.274 314.565,611.94 315.5,614.5C 314.5,615.333 313.5,616.167 312.5,617C 311.068,617.27 310.068,616.604 309.5,615C 310.833,614.333 312.167,613.667 313.5,613C 311.899,612.727 310.399,612.227 309,611.5C 308.395,613.481 307.395,613.815 306,612.5C 305.581,613.672 304.915,614.672 304,615.5C 303.149,612.907 301.982,610.073 300.5,607C 300.833,606.667 301.167,606.333 301.5,606C 299.744,605.798 298.078,605.298 296.5,604.5C 297.953,604.94 299.119,604.274 300,602.5C 300.414,602.957 300.914,603.291 301.5,603.5C 302.354,602.478 303.354,601.645 304.5,601C 304.167,600.667 303.833,600.333 303.5,600C 304.973,599.29 305.64,598.124 305.5,596.5C 303.94,596.519 302.44,596.852 301,597.5C 299.989,597.108 299.489,596.441 299.5,595.5C 297.866,595.968 296.7,596.968 296,598.5C 294.343,597.491 292.677,596.491 291,595.5C 289.238,595.944 289.405,596.444 291.5,597C 290.584,597.374 289.75,597.874 289,598.5C 288.692,597.692 288.192,597.025 287.5,596.5C 286.386,597.723 286.219,599.056 287,600.5C 288.049,599.483 289.216,599.316 290.5,600C 289.655,601.558 290.321,602.558 292.5,603C 289.833,603.667 289.833,604.333 292.5,605C 291.833,605.667 291.167,606.333 290.5,607C 292.405,607.826 292.739,608.993 291.5,610.5C 288.847,609.715 288.18,608.215 289.5,606C 288.845,604.513 287.845,603.347 286.5,602.5C 285.396,603.631 285.729,604.465 287.5,605C 285.219,606.482 285.219,608.149 287.5,610C 286.874,610.75 286.374,611.584 286,612.5C 283.661,613.557 281.495,614.89 279.5,616.5C 278.5,616 277.5,615.5 276.5,615C 277.977,612.852 279.977,611.518 282.5,611C 280.233,610.724 277.9,610.057 275.5,609C 277.014,607.561 277.347,606.061 276.5,604.5C 277.376,603.749 278.376,603.249 279.5,603C 276.407,602.93 273.407,603.264 270.5,604C 269.167,603.333 269.167,602.667 270.5,602C 269.672,601.085 268.672,600.419 267.5,600C 271.449,594.894 271.115,594.561 266.5,599C 265.833,599.667 265.167,599.667 264.5,599C 264.455,595.653 264.622,592.153 265,588.5C 263.984,589.634 263.317,589.301 263,587.5C 262.692,588.308 262.192,588.975 261.5,589.5C 262.016,588.242 261.35,587.242 259.5,586.5C 259.977,585.522 260.643,584.689 261.5,584C 263.384,583.784 265.051,583.117 266.5,582C 265.614,580.783 264.614,579.449 263.5,578C 264.333,577.167 265.167,576.333 266,575.5C 267.113,576.711 268.28,576.711 269.5,575.5C 270.681,574.485 271.681,573.319 272.5,572C 272.167,571.5 271.833,571 271.5,570.5C 271.167,571.167 270.833,571.833 270.5,572.5C 269.571,571.311 269.238,569.978 269.5,568.5C 270.5,568.5 271.5,568.5 272.5,568.5C 272.826,566.339 273.826,564.506 275.5,563C 269.166,563.317 268.832,561.484 274.5,557.5C 275.192,558.025 275.692,558.692 276,559.5C 277.098,558.033 278.598,557.199 280.5,557C 278.114,556.716 277.448,555.716 278.5,554C 276.009,553.374 276.009,552.541 278.5,551.5C 278.291,550.914 277.957,550.414 277.5,550C 280.112,547.849 280.112,547.015 277.5,547.5C 277.511,546.559 277.011,545.892 276,545.5C 275.298,546.795 274.631,548.128 274,549.5C 273.5,547.667 272.333,546.5 270.5,546C 271.337,544.989 271.67,543.822 271.5,542.5C 272.552,542.649 273.552,542.483 274.5,542C 273.019,541.02 271.685,539.853 270.5,538.5C 271.833,537.5 271.833,536.5 270.5,535.5C 273.991,532.992 277.491,532.992 281,535.5C 282.399,534.773 283.899,534.273 285.5,534C 283.122,533.026 283.456,532.359 286.5,532C 285.424,530.274 285.257,528.441 286,526.5C 287.587,527.727 288.921,527.394 290,525.5C 292.048,526.423 293.881,525.923 295.5,524C 293.789,522.867 293.289,521.367 294,519.5C 294.333,519.833 294.667,520.167 295,520.5C 296.333,516.5 297.667,516.5 299,520.5C 300.119,519.448 300.619,518.281 300.5,517C 301.833,516.667 303.167,516.333 304.5,516C 303.833,515.667 303.167,515.333 302.5,515C 303.833,514 303.833,513 302.5,512C 299.328,511.849 297.161,513.349 296,516.5C 294.148,514.77 294.314,513.604 296.5,513C 293.874,512.005 291.207,511.672 288.5,512C 287.624,513.586 286.624,515.086 285.5,516.5C 283.958,515.253 282.458,515.253 281,516.5C 279.601,515.773 278.101,515.273 276.5,515C 278.345,514.813 280.011,513.98 281.5,512.5C 279.222,511.785 277.889,510.618 277.5,509C 281.932,508.377 282.265,507.377 278.5,506C 278.833,505.667 279.167,505.333 279.5,505C 278.056,504.219 276.723,504.386 275.5,505.5C 273.65,506.242 272.984,507.242 273.5,508.5C 271.043,506.999 271.043,505.332 273.5,503.5C 272.5,502.5 271.5,501.5 270.5,500.5C 269.261,502.007 269.595,503.174 271.5,504C 270.584,504.374 269.75,504.874 269,505.5C 268.667,503.833 268.333,502.167 268,500.5C 266.354,502.055 266.021,503.721 267,505.5C 265.307,503.973 263.473,502.64 261.5,501.5C 260.59,503.655 259.423,505.655 258,507.5C 257.508,506.451 257.674,505.451 258.5,504.5C 257.502,501.972 256.669,501.972 256,504.5C 255.667,504.167 255.333,503.833 255,503.5C 253.933,505.283 252.433,505.783 250.5,505C 251.696,504.346 251.696,503.846 250.5,503.5C 249.646,504.522 248.646,505.355 247.5,506C 242.519,506.489 237.852,507.822 233.5,510C 235.044,511.187 236.711,511.52 238.5,511C 237.289,510.107 237.289,509.274 238.5,508.5C 239.429,509.689 239.762,511.022 239.5,512.5C 237.712,512.215 236.045,512.548 234.5,513.5C 235.758,512.984 236.758,513.65 237.5,515.5C 236.975,516.192 236.308,516.692 235.5,517C 237.134,517.494 238.801,517.66 240.5,517.5C 240.719,518.675 240.386,519.675 239.5,520.5C 238.304,520.154 238.304,519.654 239.5,519C 238.365,518.251 237.365,518.417 236.5,519.5C 238.461,523.898 241.294,524.565 245,521.5C 245.536,523.567 245.036,525.401 243.5,527C 244.109,529.058 245.109,529.891 246.5,529.5C 241.493,529.173 236.826,529.173 232.5,529.5C 232.642,533.223 231.309,534.056 228.5,532C 229.833,530.16 229.666,529.66 228,530.5C 227.667,529.833 227.333,529.167 227,528.5C 223.644,530.265 222.477,529.598 223.5,526.5C 222.577,525.164 222.077,523.83 222,522.5C 223.635,523.849 225.135,523.682 226.5,522C 225.551,521.383 224.718,521.549 224,522.5C 223.833,521.833 223.667,521.167 223.5,520.5C 223.758,518.37 224.091,516.204 224.5,514C 222.109,512.691 222.109,511.691 224.5,511C 222.987,508.546 223.654,506.879 226.5,506C 225.328,505.581 224.328,504.915 223.5,504C 225.126,504.195 226.793,504.195 228.5,504C 226.377,502.806 224.043,502.14 221.5,502C 222.614,500.551 223.614,499.217 224.5,498C 221.994,496.484 221.16,494.318 222,491.5C 223.796,490.233 225.629,490.233 227.5,491.5C 228.696,491.154 228.696,490.654 227.5,490C 231.23,489.589 234.564,488.256 237.5,486C 238.14,482.694 240.14,480.694 243.5,480C 242.167,479 242.167,478 243.5,477C 242.351,475.256 241.017,475.089 239.5,476.5C 238.017,474.054 236.851,474.388 236,477.5C 234.796,476.529 234.296,475.529 234.5,474.5C 233.086,475.465 232.253,476.465 232,477.5C 227.945,476.459 227.779,475.793 231.5,475.5C 231.649,474.448 231.483,473.448 231,472.5C 228.512,473.647 226.512,475.314 225,477.5C 224.586,477.043 224.086,476.709 223.5,476.5C 222.702,478.078 222.202,479.744 222,481.5C 221.666,477.801 221.499,474.301 221.5,471C 222.662,470.173 223.829,469.34 225,468.5C 225.772,468.645 226.439,468.978 227,469.5C 227.465,468.069 228.299,466.903 229.5,466C 229,465.5 228.5,465 228,464.5C 226.033,468.462 223.866,468.462 221.5,464.5C 222.489,463.532 223.156,462.365 223.5,461C 222.834,459.331 222.834,457.831 223.5,456.5C 222.247,452.143 221.247,447.81 220.5,443.5C 221.722,434.556 221.722,425.556 220.5,416.5C 221.186,417.848 222.186,419.015 223.5,420C 222.572,420.388 221.905,421.055 221.5,422C 221.611,423.722 222.111,423.888 223,422.5C 223.336,424.074 224.169,425.408 225.5,426.5C 227.064,425.814 228.731,425.981 230.5,427C 229.549,427.718 229.383,428.551 230,429.5C 230.923,428.241 231.757,426.908 232.5,425.5C 233.328,426.415 234.328,427.081 235.5,427.5C 237.592,427.413 239.592,426.913 241.5,426C 239.559,425.257 237.726,425.424 236,426.5C 233.985,424.527 234.152,422.86 236.5,421.5C 234.291,420.937 232.791,419.604 232,417.5C 231.667,417.833 231.333,418.167 231,418.5C 230.097,417.299 228.931,416.465 227.5,416C 229.762,413.293 232.429,412.293 235.5,413C 234.833,412.667 234.167,412.333 233.5,412C 234.833,410.16 234.666,409.66 233,410.5C 232.798,408.744 232.298,407.078 231.5,405.5C 230.28,404.289 229.113,404.289 228,405.5C 227.833,405 227.667,404.5 227.5,404C 229.408,399.906 232.074,398.573 235.5,400C 235.167,399.667 234.833,399.333 234.5,399C 235.742,395.643 236.576,395.81 237,399.5C 238.544,396.736 239.711,396.903 240.5,400C 236.488,403.054 237.155,404.387 242.5,404C 241.391,402.187 242.058,401.354 244.5,401.5C 244.137,399.089 245.137,397.589 247.5,397C 246.167,396 246.167,395 247.5,394C 251.101,391.551 253.601,392.384 255,396.5C 255.956,395.421 256.789,394.255 257.5,393C 256.262,393.077 255.262,392.911 254.5,392.5C 255.052,390.667 255.885,389 257,387.5C 257.492,388.549 257.326,389.549 256.5,390.5C 258.078,391.298 259.744,391.798 261.5,392C 260.5,392.333 259.5,392.667 258.5,393C 261.965,393.934 262.298,395.434 259.5,397.5C 260.711,398.72 260.711,399.887 259.5,401C 261.579,401.808 263.579,401.641 265.5,400.5C 264.397,400.002 263.397,399.669 262.5,399.5C 262.709,398.914 263.043,398.414 263.5,398C 261.071,397.549 260.904,396.715 263,395.5C 264.333,397.167 265.667,398.833 267,400.5C 267.772,399.151 268.939,398.318 270.5,398C 266.777,397.566 266.61,396.732 270,395.5C 272.2,396.619 274.033,397.619 275.5,398.5C 279.086,398.061 282.586,397.394 286,396.5C 286.414,396.957 286.914,397.291 287.5,397.5C 288.48,396.019 289.647,394.685 291,393.5C 291.915,394.328 292.581,395.328 293,396.5C 293.37,394.336 294.204,392.336 295.5,390.5C 295.669,391.397 296.002,392.397 296.5,393.5C 300.54,391.659 304.54,390.159 308.5,389C 306.107,391.028 304.274,393.195 303,395.5C 304.113,394.289 305.28,394.289 306.5,395.5C 307.478,395.023 308.311,394.357 309,393.5C 309.617,394.449 309.451,395.282 308.5,396C 309.766,396.309 310.933,396.809 312,397.5C 312.456,396.256 311.956,395.423 310.5,395C 311.833,394.333 313.167,393.667 314.5,393C 313.833,392.667 313.167,392.333 312.5,392C 315.265,390.871 317.765,389.371 320,387.5C 321.826,388.01 321.993,388.844 320.5,390C 322.409,390.448 323.576,389.615 324,387.5C 324.333,387.833 324.667,388.167 325,388.5C 325.483,387.552 325.649,386.552 325.5,385.5C 322.859,386.263 320.192,386.43 317.5,386C 319.061,385.682 320.228,384.849 321,383.5C 321.414,383.957 321.914,384.291 322.5,384.5C 323.382,383.24 324.382,382.074 325.5,381C 323.905,381.617 322.572,381.284 321.5,380C 323.101,379.727 324.601,379.227 326,378.5C 328.267,379.935 330.267,379.602 332,377.5C 332.483,378.448 332.649,379.448 332.5,380.5C 334.722,380.178 336.556,380.845 338,382.5C 338.249,381.376 338.749,380.376 339.5,379.5C 339.997,381.216 340.331,382.883 340.5,384.5C 342.429,383.62 344.263,382.62 346,381.5C 347.422,382.205 348.755,382.539 350,382.5C 350.309,381.234 350.809,380.067 351.5,379C 353.433,378.749 355.266,378.249 357,377.5C 358,379.167 359,380.833 360,382.5C 360.419,381.328 361.085,380.328 362,379.5C 362.772,380.849 363.939,381.682 365.5,382C 364.833,382.333 364.167,382.667 363.5,383C 365.447,383.991 367.447,384.325 369.5,384C 368.167,383.333 368.167,382.667 369.5,382C 370.449,381.383 371.282,381.549 372,382.5C 372.667,381.833 373.333,381.167 374,380.5C 374.423,381.956 375.256,382.456 376.5,382C 374.652,380.507 373.819,378.674 374,376.5C 375.938,377.86 377.604,377.527 379,375.5C 379.333,376.167 379.667,376.833 380,377.5C 384.674,376.163 388.174,373.33 390.5,369C 391.424,367.85 391.424,366.85 390.5,366C 392.686,365.396 392.852,364.23 391,362.5C 388.328,365.209 386.162,367.709 384.5,370C 384.833,370.333 385.167,370.667 385.5,371C 384.256,371.456 383.423,370.956 383,369.5C 382.667,369.833 382.333,370.167 382,370.5C 381.935,368.117 381.102,367.45 379.5,368.5C 377.34,366.907 377.173,365.24 379,363.5C 381.26,363.327 383.593,363.327 386,363.5C 386.483,362.552 386.649,361.552 386.5,360.5C 388.2,360.374 389.7,359.707 391,358.5C 393.833,358.667 396.667,358.833 399.5,359C 400.551,357.615 401.884,356.615 403.5,356C 402.529,354.796 401.529,354.296 400.5,354.5C 401.531,353.3 402.365,351.966 403,350.5C 404.204,351.471 404.704,352.471 404.5,353.5C 406.278,353.431 408.111,353.097 410,352.5C 419.094,371.042 429.927,388.375 442.5,404.5C 459.069,427.277 475.902,449.944 493,472.5C 495.5,475 498,477.5 500.5,480C 505.748,483.157 511.081,483.323 516.5,480.5C 539.808,473.681 561.808,463.848 582.5,451C 592.434,447.133 602.434,443.467 612.5,440C 613.833,439.333 613.833,438.667 612.5,438C 607.72,436.444 603.387,434.111 599.5,431C 600.167,430.333 600.833,429.667 601.5,429C 609.688,427.27 617.688,424.937 625.5,422C 635.531,416.984 645.531,411.984 655.5,407C 642.703,405.743 630.037,403.743 617.5,401C 620.557,398.277 623.89,395.944 627.5,394C 645.914,385.074 665.247,381.407 685.5,383C 680.49,379.493 675.157,376.493 669.5,374C 655.713,369.188 642.713,362.855 630.5,355C 628.087,352.438 626.42,349.438 625.5,346C 630.896,346.77 636.229,347.603 641.5,348.5C 640.448,348.351 639.448,348.517 638.5,349C 641.226,349.182 643.893,349.682 646.5,350.5C 645.738,350.911 644.738,351.077 643.5,351C 645.948,351.848 647.448,353.014 648,354.5C 650.111,353.528 652.278,352.695 654.5,352C 652.765,351.349 651.098,351.515 649.5,352.5C 648.304,352.154 648.304,351.654 649.5,351C 652.167,350.333 654.833,350.333 657.5,351C 656.833,351.333 656.167,351.667 655.5,352C 656.035,354.109 657.035,354.609 658.5,353.5C 659.216,354.311 660.05,354.978 661,355.5C 662.235,354.385 663.402,354.385 664.5,355.5C 667.555,352.91 670.889,351.91 674.5,352.5C 675.327,350.838 676.493,349.505 678,348.5C 678.914,349.654 679.747,349.487 680.5,348C 683.331,348.553 685.997,348.22 688.5,347C 686.5,346.667 684.5,346.333 682.5,346C 685.71,345.426 689.043,344.26 692.5,342.5C 695.028,343.498 695.028,344.331 692.5,345C 693.833,345.667 693.833,346.333 692.5,347C 694.18,347.034 695.68,347.201 697,347.5C 698.724,344.83 699.891,345.163 700.5,348.5C 699.009,350.012 697.176,351.012 695,351.5C 693.777,349.015 692.277,348.848 690.5,351C 692.5,352.333 694.167,354 695.5,356C 694.833,356.667 694.167,357.333 693.5,358C 694.854,359.294 696.188,359.46 697.5,358.5C 697.998,359.603 698.331,360.603 698.5,361.5C 700.115,360.846 701.782,360.346 703.5,360C 698.441,359.706 698.274,358.539 703,356.5C 705.257,358.046 707.424,359.712 709.5,361.5C 712.097,361.147 714.93,360.481 718,359.5C 719.94,361.162 720.606,360.829 720,358.5C 717.237,355.712 714.903,356.045 713,359.5C 710.993,356.788 711.826,355.288 715.5,355C 713.088,352.965 713.755,351.965 717.5,352C 718.147,350.391 718.98,348.891 720,347.5C 720.353,348.672 720.187,349.838 719.5,351C 723.041,354.087 726.041,357.587 728.5,361.5C 728.64,362.903 728.64,364.403 728.5,366C 730.731,367.147 733.065,368.147 735.5,369C 732.054,372.841 733.054,373.841 738.5,372C 737.692,371.692 737.025,371.192 736.5,370.5C 737.48,369.019 738.647,367.685 740,366.5C 740.684,367.784 740.517,368.951 739.5,370C 741.18,370.034 742.68,370.201 744,370.5C 745.044,369.377 745.71,368.044 746,366.5C 747.84,367.833 748.34,367.666 747.5,366C 748.5,365.667 749.5,365.333 750.5,365C 754.505,365.405 758.505,364.738 762.5,363C 758.81,362.576 758.643,361.742 762,360.5C 763.406,361.668 764.572,361.335 765.5,359.5C 765.126,360.771 765.792,361.938 767.5,363C 763.553,366.523 763.553,367.357 767.5,365.5C 769.198,366.681 770.865,366.681 772.5,365.5C 771.092,364.757 769.759,363.923 768.5,363C 769,362.5 769.5,362 770,361.5C 771.099,364.044 772.265,364.044 773.5,361.5C 770.833,360.5 770.833,359.5 773.5,358.5C 775.22,359.934 777.22,360.767 779.5,361C 777.234,361.932 775.234,363.266 773.5,365C 775.279,364.021 776.945,364.354 778.5,366C 778.167,366.333 777.833,366.667 777.5,367C 779.5,367.667 780.833,369 781.5,371C 780.551,371.617 779.718,371.451 779,370.5C 778.293,372.081 777.46,373.581 776.5,375C 777.667,375.5 778.5,376.333 779,377.5C 779.5,376.5 780,375.5 780.5,374.5C 782.637,373.92 784.47,372.92 786,371.5C 786.561,372.022 787.228,372.355 788,372.5C 789.274,371.465 790.44,370.298 791.5,369C 790.975,368.308 790.308,367.808 789.5,367.5C 789.167,368.167 788.833,368.833 788.5,369.5C 787.402,368.385 786.235,368.385 785,369.5C 782.976,369.2 782.476,368.367 783.5,367C 779.815,366.086 780.148,365.419 784.5,365C 784.179,363.063 785.179,361.563 787.5,360.5C 787.833,361.167 788.167,361.833 788.5,362.5C 789.609,361.41 790.609,361.41 791.5,362.5C 790.624,363.251 789.624,363.751 788.5,364C 790.373,365.085 792.04,366.418 793.5,368C 793.167,368.333 792.833,368.667 792.5,369C 795.207,371.072 797.373,370.572 799,367.5C 799.5,412.165 799.667,456.832 799.5,501.5 Z"/></g>
<g><path style="opacity:1" fill="#3f8e3e" d="M 399.5,453.5 C 411.666,453.185 416.166,458.852 413,470.5C 393.52,493.282 373.686,515.782 353.5,538C 349.302,540.161 345.302,539.828 341.5,537C 330.667,525.5 319.833,514 309,502.5C 304.797,495.179 306.297,489.346 313.5,485C 316.167,484.333 318.833,484.333 321.5,485C 331,493.167 339.833,502 348,511.5C 364.689,491.65 381.856,472.316 399.5,453.5 Z"/></g>
<g><path style="opacity:1" fill="#026bd1" d="M 942.5,246.5 C 942.818,424.174 942.485,601.841 941.5,779.5C 940.835,776.016 940.501,772.349 940.5,768.5C 941.152,594.337 941.819,420.337 942.5,246.5 Z"/></g>
<g><path style="opacity:1" fill="#fcf2d0" d="M 219.5,213.5 C 220.586,213.62 221.253,214.287 221.5,215.5C 221.66,228.181 221.327,241.181 220.5,254.5C 221.073,308.78 221.073,362.78 220.5,416.5C 221.722,425.556 221.722,434.556 220.5,443.5C 221.247,447.81 222.247,452.143 223.5,456.5C 222.834,457.831 222.834,459.331 223.5,461C 223.156,462.365 222.489,463.532 221.5,464.5C 223.866,468.462 226.033,468.462 228,464.5C 228.5,465 229,465.5 229.5,466C 228.299,466.903 227.465,468.069 227,469.5C 226.439,468.978 225.772,468.645 225,468.5C 223.829,469.34 222.662,470.173 221.5,471C 221.499,474.301 221.666,477.801 222,481.5C 222.202,479.744 222.702,478.078 223.5,476.5C 224.086,476.709 224.586,477.043 225,477.5C 226.512,475.314 228.512,473.647 231,472.5C 231.483,473.448 231.649,474.448 231.5,475.5C 227.779,475.793 227.945,476.459 232,477.5C 232.253,476.465 233.086,475.465 234.5,474.5C 234.296,475.529 234.796,476.529 236,477.5C 236.851,474.388 238.017,474.054 239.5,476.5C 241.017,475.089 242.351,475.256 243.5,477C 242.167,478 242.167,479 243.5,480C 240.14,480.694 238.14,482.694 237.5,486C 234.564,488.256 231.23,489.589 227.5,490C 228.696,490.654 228.696,491.154 227.5,491.5C 225.629,490.233 223.796,490.233 222,491.5C 221.16,494.318 221.994,496.484 224.5,498C 223.614,499.217 222.614,500.551 221.5,502C 224.043,502.14 226.377,502.806 228.5,504C 226.793,504.195 225.126,504.195 223.5,504C 224.328,504.915 225.328,505.581 226.5,506C 223.654,506.879 222.987,508.546 224.5,511C 222.109,511.691 222.109,512.691 224.5,514C 224.091,516.204 223.758,518.37 223.5,520.5C 223.667,521.167 223.833,521.833 224,522.5C 224.718,521.549 225.551,521.383 226.5,522C 225.135,523.682 223.635,523.849 222,522.5C 222.077,523.83 222.577,525.164 223.5,526.5C 222.477,529.598 223.644,530.265 227,528.5C 227.333,529.167 227.667,529.833 228,530.5C 229.666,529.66 229.833,530.16 228.5,532C 231.309,534.056 232.642,533.223 232.5,529.5C 236.826,529.173 241.493,529.173 246.5,529.5C 245.109,529.891 244.109,529.058 243.5,527C 245.036,525.401 245.536,523.567 245,521.5C 241.294,524.565 238.461,523.898 236.5,519.5C 237.365,518.417 238.365,518.251 239.5,519C 238.304,519.654 238.304,520.154 239.5,520.5C 240.386,519.675 240.719,518.675 240.5,517.5C 238.801,517.66 237.134,517.494 235.5,517C 236.308,516.692 236.975,516.192 237.5,515.5C 236.758,513.65 235.758,512.984 234.5,513.5C 236.045,512.548 237.712,512.215 239.5,512.5C 239.762,511.022 239.429,509.689 238.5,508.5C 237.289,509.274 237.289,510.107 238.5,511C 236.711,511.52 235.044,511.187 233.5,510C 237.852,507.822 242.519,506.489 247.5,506C 248.646,505.355 249.646,504.522 250.5,503.5C 251.696,503.846 251.696,504.346 250.5,505C 252.433,505.783 253.933,505.283 255,503.5C 255.333,503.833 255.667,504.167 256,504.5C 256.669,501.972 257.502,501.972 258.5,504.5C 257.674,505.451 257.508,506.451 258,507.5C 259.423,505.655 260.59,503.655 261.5,501.5C 263.473,502.64 265.307,503.973 267,505.5C 266.021,503.721 266.354,502.055 268,500.5C 268.333,502.167 268.667,503.833 269,505.5C 269.75,504.874 270.584,504.374 271.5,504C 269.595,503.174 269.261,502.007 270.5,500.5C 271.5,501.5 272.5,502.5 273.5,503.5C 271.043,505.332 271.043,506.999 273.5,508.5C 272.984,507.242 273.65,506.242 275.5,505.5C 276.723,504.386 278.056,504.219 279.5,505C 279.167,505.333 278.833,505.667 278.5,506C 282.265,507.377 281.932,508.377 277.5,509C 277.889,510.618 279.222,511.785 281.5,512.5C 280.011,513.98 278.345,514.813 276.5,515C 278.101,515.273 279.601,515.773 281,516.5C 282.458,515.253 283.958,515.253 285.5,516.5C 286.624,515.086 287.624,513.586 288.5,512C 291.207,511.672 293.874,512.005 296.5,513C 294.314,513.604 294.148,514.77 296,516.5C 297.161,513.349 299.328,511.849 302.5,512C 303.833,513 303.833,514 302.5,515C 303.167,515.333 303.833,515.667 304.5,516C 303.167,516.333 301.833,516.667 300.5,517C 300.619,518.281 300.119,519.448 299,520.5C 297.667,516.5 296.333,516.5 295,520.5C 294.667,520.167 294.333,519.833 294,519.5C 293.289,521.367 293.789,522.867 295.5,524C 293.881,525.923 292.048,526.423 290,525.5C 288.921,527.394 287.587,527.727 286,526.5C 285.257,528.441 285.424,530.274 286.5,532C 283.456,532.359 283.122,533.026 285.5,534C 283.899,534.273 282.399,534.773 281,535.5C 277.491,532.992 273.991,532.992 270.5,535.5C 271.833,536.5 271.833,537.5 270.5,538.5C 271.685,539.853 273.019,541.02 274.5,542C 273.552,542.483 272.552,542.649 271.5,542.5C 271.67,543.822 271.337,544.989 270.5,546C 272.333,546.5 273.5,547.667 274,549.5C 274.631,548.128 275.298,546.795 276,545.5C 277.011,545.892 277.511,546.559 277.5,547.5C 280.112,547.015 280.112,547.849 277.5,550C 277.957,550.414 278.291,550.914 278.5,551.5C 276.009,552.541 276.009,553.374 278.5,554C 277.448,555.716 278.114,556.716 280.5,557C 278.598,557.199 277.098,558.033 276,559.5C 275.692,558.692 275.192,558.025 274.5,557.5C 268.832,561.484 269.166,563.317 275.5,563C 273.826,564.506 272.826,566.339 272.5,568.5C 271.5,568.5 270.5,568.5 269.5,568.5C 269.238,569.978 269.571,571.311 270.5,572.5C 270.833,571.833 271.167,571.167 271.5,570.5C 271.833,571 272.167,571.5 272.5,572C 271.681,573.319 270.681,574.485 269.5,575.5C 268.28,576.711 267.113,576.711 266,575.5C 265.167,576.333 264.333,577.167 263.5,578C 264.614,579.449 265.614,580.783 266.5,582C 265.051,583.117 263.384,583.784 261.5,584C 260.643,584.689 259.977,585.522 259.5,586.5C 261.35,587.242 262.016,588.242 261.5,589.5C 262.192,588.975 262.692,588.308 263,587.5C 263.317,589.301 263.984,589.634 265,588.5C 264.622,592.153 264.455,595.653 264.5,599C 265.167,599.667 265.833,599.667 266.5,599C 271.115,594.561 271.449,594.894 267.5,600C 268.672,600.419 269.672,601.085 270.5,602C 269.167,602.667 269.167,603.333 270.5,604C 273.407,603.264 276.407,602.93 279.5,603C 278.376,603.249 277.376,603.749 276.5,604.5C 277.347,606.061 277.014,607.561 275.5,609C 277.9,610.057 280.233,610.724 282.5,611C 279.977,611.518 277.977,612.852 276.5,615C 277.5,615.5 278.5,616 279.5,616.5C 281.495,614.89 283.661,613.557 286,612.5C 286.374,611.584 286.874,610.75 287.5,610C 285.219,608.149 285.219,606.482 287.5,605C 285.729,604.465 285.396,603.631 286.5,602.5C 287.845,603.347 288.845,604.513 289.5,606C 288.18,608.215 288.847,609.715 291.5,610.5C 292.739,608.993 292.405,607.826 290.5,607C 291.167,606.333 291.833,605.667 292.5,605C 289.833,604.333 289.833,603.667 292.5,603C 290.321,602.558 289.655,601.558 290.5,600C 289.216,599.316 288.049,599.483 287,600.5C 286.219,599.056 286.386,597.723 287.5,596.5C 288.192,597.025 288.692,597.692 289,598.5C 289.75,597.874 290.584,597.374 291.5,597C 289.405,596.444 289.238,595.944 291,595.5C 292.677,596.491 294.343,597.491 296,598.5C 296.7,596.968 297.866,595.968 299.5,595.5C 299.489,596.441 299.989,597.108 301,597.5C 302.44,596.852 303.94,596.519 305.5,596.5C 305.64,598.124 304.973,599.29 303.5,600C 303.833,600.333 304.167,600.667 304.5,601C 303.354,601.645 302.354,602.478 301.5,603.5C 300.914,603.291 300.414,602.957 300,602.5C 299.119,604.274 297.953,604.94 296.5,604.5C 298.078,605.298 299.744,605.798 301.5,606C 301.167,606.333 300.833,606.667 300.5,607C 301.982,610.073 303.149,612.907 304,615.5C 304.915,614.672 305.581,613.672 306,612.5C 307.395,613.815 308.395,613.481 309,611.5C 310.399,612.227 311.899,612.727 313.5,613C 312.167,613.667 310.833,614.333 309.5,615C 310.068,616.604 311.068,617.27 312.5,617C 313.5,616.167 314.5,615.333 315.5,614.5C 314.565,611.94 315.399,611.274 318,612.5C 318.333,611.5 318.667,610.5 319,609.5C 319.333,609.833 319.667,610.167 320,610.5C 320.492,609.451 320.326,608.451 319.5,607.5C 319.833,606.5 320.5,605.833 321.5,605.5C 325.52,609.189 329.52,612.855 333.5,616.5C 336.297,618.795 338.964,621.295 341.5,624C 345.862,625.923 350.195,625.923 354.5,624C 371.032,605.305 387.699,586.805 404.5,568.5C 407.13,566.372 409.63,564.039 412,561.5C 415.401,557.449 416.234,552.949 414.5,548C 417.693,548.27 420.693,547.27 423.5,545C 423.5,543 423.5,541 423.5,539C 420.833,539.333 418.167,539.667 415.5,540C 419.027,539.14 421.193,536.973 422,533.5C 422.333,533.833 422.667,534.167 423,534.5C 424.487,533.747 424.654,532.914 423.5,532C 424.687,530.981 425.687,529.814 426.5,528.5C 427.689,527.571 429.022,527.238 430.5,527.5C 430.5,526.5 430.5,525.5 430.5,524.5C 429.448,524.649 428.448,524.483 427.5,524C 429.134,523.506 430.801,523.34 432.5,523.5C 434.027,523.427 435.027,524.094 435.5,525.5C 435.062,525.435 434.728,525.601 434.5,526C 435.328,526.915 436.328,527.581 437.5,528C 526.161,529.338 614.828,529.838 703.5,529.5C 698.923,530.355 693.589,530.855 687.5,531C 689.061,531.318 690.228,532.151 691,533.5C 691.388,532.572 692.055,531.905 693,531.5C 693.759,532.646 694.426,533.646 695,534.5C 696.727,534.354 696.894,533.687 695.5,532.5C 696.723,531.386 698.056,531.219 699.5,532C 699.167,532.333 698.833,532.667 698.5,533C 700.705,534.427 702.872,534.927 705,534.5C 705.483,535.448 705.649,536.448 705.5,537.5C 708.079,536.447 710.579,535.113 713,533.5C 714.635,534.849 716.135,534.682 717.5,533C 715.956,532.71 714.623,532.044 713.5,531C 715.543,530.07 717.376,529.57 719,529.5C 719.805,531.901 720.638,531.734 721.5,529C 720.124,526.457 718.957,526.291 718,528.5C 716.422,528.412 714.922,528.412 713.5,528.5C 714.747,526.958 714.747,525.458 713.5,524C 715.041,522.421 716.208,520.587 717,518.5C 717.392,514.472 717.892,510.472 718.5,506.5C 720.978,505.805 722.978,504.305 724.5,502C 724.002,500.842 723.169,500.009 722,499.5C 720.899,500.291 720.066,500.291 719.5,499.5C 722.168,498.262 724.834,498.262 727.5,499.5C 730.075,496.681 731.908,497.014 733,500.5C 733.249,499.376 733.749,498.376 734.5,497.5C 736.432,498.52 738.432,498.687 740.5,498C 741.362,495.266 742.195,495.099 743,497.5C 744.187,495.956 744.52,494.289 744,492.5C 743.549,494.929 742.715,495.096 741.5,493C 742.879,490.597 744.545,488.43 746.5,486.5C 745.011,486.467 743.678,485.967 742.5,485C 743.849,484.228 744.682,483.061 745,481.5C 745.741,482.641 746.575,482.641 747.5,481.5C 749.638,482.429 750.804,484.096 751,486.5C 752.895,482.702 754.061,482.535 754.5,486C 752.608,486.973 750.608,487.64 748.5,488C 749.517,489.049 749.684,490.216 749,491.5C 748.107,490.289 747.274,490.289 746.5,491.5C 747.687,492.519 748.687,493.686 749.5,495C 747.513,496.319 746.346,498.152 746,500.5C 745.667,499.833 745.333,499.167 745,498.5C 744.259,499.641 743.425,499.641 742.5,498.5C 740.554,500.044 740.054,502.044 741,504.5C 741.249,503.376 741.749,502.376 742.5,501.5C 746.044,501.309 749.211,502.642 752,505.5C 752.333,505.167 752.667,504.833 753,504.5C 753.456,505.744 752.956,506.577 751.5,507C 751.833,507.333 752.167,507.667 752.5,508C 751.377,509.044 750.044,509.71 748.5,510C 749.167,510.333 749.833,510.667 750.5,511C 747.724,512.779 748.057,513.779 751.5,514C 751.167,514.333 750.833,514.667 750.5,515C 752.486,514.206 754.319,514.706 756,516.5C 758.35,511.655 762.184,508.822 767.5,508C 768.479,506.221 768.146,504.555 766.5,503C 767.025,502.308 767.692,501.808 768.5,501.5C 768.669,502.397 769.002,503.397 769.5,504.5C 770.906,503.049 772.406,501.716 774,500.5C 774.617,501.449 774.451,502.282 773.5,503C 774.167,503.667 774.833,504.333 775.5,505C 773.205,505.984 773.539,506.817 776.5,507.5C 777.906,506.332 779.072,506.665 780,508.5C 781.363,506.216 782.863,506.049 784.5,508C 781.895,508.026 780.729,509.193 781,511.5C 781.654,510.304 782.154,510.304 782.5,511.5C 780.922,512.298 779.256,512.798 777.5,513C 780.028,513.998 780.028,514.831 777.5,515.5C 774.339,515.194 772.672,513.86 772.5,511.5C 771.158,512.902 770.324,512.569 770,510.5C 767.734,511.956 765.234,512.79 762.5,513C 762.833,513.333 763.167,513.667 763.5,514C 762.056,515.763 761.056,517.763 760.5,520C 755.635,520.356 750.968,519.522 746.5,517.5C 744.362,518.243 742.196,518.91 740,519.5C 737.435,518.678 735.268,519.511 733.5,522C 734.996,522.507 736.163,522.007 737,520.5C 738.676,521.061 740.009,522.061 741,523.5C 743.242,522.825 745.409,523.325 747.5,525C 746.299,525.903 745.465,527.069 745,528.5C 744.667,528.167 744.333,527.833 744,527.5C 742.933,528.191 741.766,528.691 740.5,529C 741.167,529.333 741.833,529.667 742.5,530C 740.866,530.494 739.199,530.66 737.5,530.5C 737.5,531.5 737.5,532.5 737.5,533.5C 739.2,533.374 740.7,532.707 742,531.5C 743.826,532.01 743.993,532.844 742.5,534C 745.644,534.952 748.144,534.119 750,531.5C 751.067,532.191 752.234,532.691 753.5,533C 753.167,533.333 752.833,533.667 752.5,534C 753.416,534.374 754.25,534.874 755,535.5C 756.512,533.043 757.846,533.043 759,535.5C 762.392,532.693 761.892,530.527 757.5,529C 757.957,528.586 758.291,528.086 758.5,527.5C 760.541,526.952 762.874,526.785 765.5,527C 762.833,528 762.833,529 765.5,530C 765.167,530.333 764.833,530.667 764.5,531C 765.5,531.5 766.5,532 767.5,532.5C 767.92,530.674 767.92,528.674 767.5,526.5C 769.877,526.216 772.044,526.216 774,526.5C 774.582,523.332 775.582,522.999 777,525.5C 778.938,524.14 780.604,524.473 782,526.5C 782.333,525.5 782.667,524.5 783,523.5C 783.755,526.497 782.922,528.997 780.5,531C 782.351,531.837 784.184,532.671 786,533.5C 787.44,530.662 789.44,529.995 792,531.5C 793.887,531.031 795.387,530.031 796.5,528.5C 797.631,530.074 797.798,531.741 797,533.5C 795.333,533.833 793.667,534.167 792,534.5C 791.667,533.833 791.333,533.167 791,532.5C 788.457,533.876 788.291,535.043 790.5,536C 788.009,536.626 788.009,537.459 790.5,538.5C 788.307,540.382 788.973,540.882 792.5,540C 791.289,539.107 791.289,538.274 792.5,537.5C 793.935,539.401 795.602,539.734 797.5,538.5C 798.167,526.007 798.833,513.673 799.5,501.5C 799.488,553.079 799.488,604.413 799.5,655.5C 798.109,664.285 794.109,671.618 787.5,677.5C 781.302,680.898 774.636,682.898 767.5,683.5C 593.5,683.667 419.5,683.5 245.5,683C 231.873,678.875 223.206,670.041 219.5,656.5C 219.5,653.5 219.5,650.5 219.5,647.5C 219.5,502.833 219.5,358.167 219.5,213.5 Z"/></g>
<g><path style="opacity:1" fill="#fefefc" d="M 437.5,600.5 C 526.471,601.492 615.471,601.826 704.5,601.5C 616.334,602.666 528.001,602.832 439.5,602C 438.584,601.722 437.918,601.222 437.5,600.5 Z"/></g>
<g><path style="opacity:1" fill="#3f8d3e" d="M 404.5,568.5 C 387.699,586.805 371.032,605.305 354.5,624C 350.195,625.923 345.862,625.923 341.5,624C 338.964,621.295 336.297,618.795 333.5,616.5C 325.562,607.391 317.396,598.391 309,589.5C 307.448,587.232 306.615,584.732 306.5,582C 308.465,571.852 314.131,568.852 323.5,573C 332.012,581.212 340.179,589.712 348,598.5C 363.794,579.704 379.961,561.204 396.5,543C 409.438,539.268 414.938,544.101 413,557.5C 409.927,561.061 407.094,564.728 404.5,568.5 Z"/></g>
<g><path style="opacity:1" fill="#d1af56" d="M 711.5,597.5 C 710.341,599.25 708.674,600.25 706.5,600.5C 705.508,600.328 704.842,600.662 704.5,601.5C 615.471,601.826 526.471,601.492 437.5,600.5C 437.5,600.167 437.5,599.833 437.5,599.5C 437.938,599.565 438.272,599.399 438.5,599C 436.651,597.907 434.984,596.574 433.5,595C 433.833,594.667 434.167,594.333 434.5,594C 429.751,586.675 431.084,580.675 438.5,576C 528.167,575.333 617.833,575.333 707.5,576C 714.07,579.655 716.237,585.155 714,592.5C 712.954,594.09 711.787,595.59 710.5,597C 710.728,597.399 711.062,597.565 711.5,597.5 Z"/></g>
<g><path style="opacity:1" fill="#c8a13c" d="M 711.5,597.5 C 711.062,597.565 710.728,597.399 710.5,597C 711.787,595.59 712.954,594.09 714,592.5C 716.237,585.155 714.07,579.655 707.5,576C 617.833,575.333 528.167,575.333 438.5,576C 431.084,580.675 429.751,586.675 434.5,594C 434.167,594.333 433.833,594.667 433.5,595C 434.984,596.574 436.651,597.907 438.5,599C 438.272,599.399 437.938,599.565 437.5,599.5C 427.819,592.382 427.152,584.382 435.5,575.5C 436.922,575.291 438.255,574.791 439.5,574C 528.167,573.333 616.833,573.333 705.5,574C 713.684,576.537 717.184,582.037 716,590.5C 715.062,593.257 713.562,595.59 711.5,597.5 Z"/></g>
<g><path style="opacity:1" fill="#fefdf8" d="M 706.5,600.5 C 708.674,600.25 710.341,599.25 711.5,597.5C 713.562,595.59 715.062,593.257 716,590.5C 717.184,582.037 713.684,576.537 705.5,574C 616.833,573.333 528.167,573.333 439.5,574C 438.255,574.791 436.922,575.291 435.5,575.5C 436.058,574.21 437.058,573.377 438.5,573C 527.833,572.333 617.167,572.333 706.5,573C 717.602,577.723 720.436,585.556 715,596.5C 712.834,600.011 710.001,601.344 706.5,600.5 Z"/></g>
<g><path style="opacity:1" fill="#fdf9e8" d="M 435.5,525.5 C 436.473,525.987 437.473,526.487 438.5,527C 527.833,527.5 617.166,527.667 706.5,527.5C 706.246,528.332 705.246,528.999 703.5,529.5C 614.828,529.838 526.161,529.338 437.5,528C 436.328,527.581 435.328,526.915 434.5,526C 434.728,525.601 435.062,525.435 435.5,525.5 Z"/></g>
<g><path style="opacity:1" fill="#d0ad53" d="M 703.5,500.5 C 706.817,500.664 709.817,501.664 712.5,503.5C 718.879,513.682 716.879,521.682 706.5,527.5C 617.166,527.667 527.833,527.5 438.5,527C 437.473,526.487 436.473,525.987 435.5,525.5C 435.027,524.094 434.027,523.427 432.5,523.5C 427.111,513.983 429.111,506.483 438.5,501C 526.833,500.5 615.166,500.333 703.5,500.5 Z"/></g>
<g><path style="opacity:1" fill="#fefef7" d="M 712.5,503.5 C 709.817,501.664 706.817,500.664 703.5,500.5C 616.001,499.667 528.334,499.167 440.5,499C 528.833,498.333 617.167,498.333 705.5,499C 708.547,499.516 710.88,501.016 712.5,503.5 Z"/></g>
<g><path style="opacity:1" fill="#d4b055" d="M 801.5,652.5 C 801.623,659.529 801.29,666.529 800.5,673.5C 795.94,690.061 785.273,700.061 768.5,703.5C 596.166,703.667 423.833,703.5 251.5,703C 233.934,699.1 223.434,688.267 220,670.5C 219.501,665.845 219.334,661.179 219.5,656.5C 223.206,670.041 231.873,678.875 245.5,683C 419.5,683.5 593.5,683.667 767.5,683.5C 595,684.333 422.334,684.833 249.5,685C 423.167,685.667 596.833,685.667 770.5,685C 774.477,684.215 778.311,683.049 782,681.5C 782.617,682.449 782.451,683.282 781.5,684C 784.176,684.617 784.843,683.784 783.5,681.5C 785.188,680.479 786.521,679.145 787.5,677.5C 794.109,671.618 798.109,664.285 799.5,655.5C 800.167,654.5 800.833,653.5 801.5,652.5 Z"/></g>
<g><path style="opacity:1" fill="#c2972b" d="M 787.5,677.5 C 786.521,679.145 785.188,680.479 783.5,681.5C 784.843,683.784 784.176,684.617 781.5,684C 782.451,683.282 782.617,682.449 782,681.5C 778.311,683.049 774.477,684.215 770.5,685C 596.833,685.667 423.167,685.667 249.5,685C 422.334,684.833 595,684.333 767.5,683.5C 774.636,682.898 781.302,680.898 787.5,677.5 Z"/></g>
<g><path style="opacity:1" fill="#c6a85c" d="M 311.5,699.5 C 463.43,700.332 615.43,700.832 767.5,701C 595.167,701.667 422.833,701.667 250.5,701C 271.004,700.832 291.337,700.332 311.5,699.5 Z"/></g>
<g><path style="opacity:1" fill="#070e14" d="M 344.5,759.5 C 330.431,760.175 316.265,760.841 302,761.5C 301.333,793.5 301.333,825.5 302,857.5C 319.598,858.16 337.098,858.827 354.5,859.5C 353.209,859.263 352.209,859.596 351.5,860.5C 335.163,860.667 318.83,860.5 302.5,860C 301.619,859.292 300.953,858.458 300.5,857.5C 300.333,825.165 300.5,792.832 301,760.5C 315.421,759.51 329.921,759.176 344.5,759.5 Z"/></g>
<g><path style="opacity:1" fill="#0b131b" d="M 501.5,759.5 C 508.09,759.189 514.59,759.522 521,760.5C 521.5,775.163 521.667,789.83 521.5,804.5C 520.669,790.339 520.169,776.006 520,761.5C 514,760.167 508,760.167 502,761.5C 501.5,793.832 501.333,826.165 501.5,858.5C 507.758,858.81 513.924,858.476 520,857.5C 520.833,818.839 521.333,818.839 521.5,857.5C 521.047,858.458 520.381,859.292 519.5,860C 513.5,860.667 507.5,860.667 501.5,860C 500.956,859.283 500.289,858.783 499.5,858.5C 499.333,826.165 499.5,793.832 500,761.5C 500.717,760.956 501.217,760.289 501.5,759.5 Z"/></g>
<g><path style="opacity:1" fill="#072233" d="M 728.5,776.5 C 737.472,792.062 739.972,808.728 736,826.5C 727.266,852.469 709.099,864.302 681.5,862C 651.813,856.189 637.146,838.023 637.5,807.5C 638.057,790.722 644.724,777.055 657.5,766.5C 676.474,755.108 695.807,754.608 715.5,765C 720.002,768.67 724.335,772.503 728.5,776.5 Z"/></g>
<g><path style="opacity:1" fill="#03050a" d="M 619.5,760.5 C 620.117,760.611 620.617,760.944 621,761.5C 621.667,793.833 621.667,826.167 621,858.5C 620.5,859 620,859.5 619.5,860C 613.5,860.667 607.5,860.667 601.5,860C 601,859.5 600.5,859 600,858.5C 599.333,826.167 599.333,793.833 600,761.5C 600.5,761 601,760.5 601.5,760C 607.681,759.181 613.681,759.347 619.5,760.5 Z"/></g>
<g><path style="opacity:1" fill="#34acec" d="M 728.5,776.5 C 724.335,772.503 720.002,768.67 715.5,765C 695.807,754.608 676.474,755.108 657.5,766.5C 656.668,765.671 657.001,764.838 658.5,764C 684.331,750.356 707.498,753.856 728,774.5C 728.464,775.094 728.631,775.761 728.5,776.5 Z"/></g>
<g><path style="opacity:1" fill="#072335" d="M 521.5,857.5 C 521.333,818.839 520.833,818.839 520,857.5C 513.924,858.476 507.758,858.81 501.5,858.5C 501.333,826.165 501.5,793.832 502,761.5C 508,760.167 514,760.167 520,761.5C 520.169,776.006 520.669,790.339 521.5,804.5C 533.257,789.565 545.257,774.732 557.5,760C 565.167,759.333 572.833,759.333 580.5,760C 580.957,760.414 581.291,760.914 581.5,761.5C 570.405,776.764 558.739,791.597 546.5,806C 558.903,822.733 570.903,839.733 582.5,857C 582.241,858.261 581.574,859.261 580.5,860C 573.833,860.667 567.167,860.667 560.5,860C 550.276,846.617 540.276,833.117 530.5,819.5C 527.777,821.934 525.277,824.601 523,827.5C 522.83,837.675 522.33,847.675 521.5,857.5 Z"/></g>
<g><path style="opacity:1" fill="#2d92dc" d="M 680.5,777.5 C 703.602,775.6 715.268,786.267 715.5,809.5C 716.23,823.545 710.563,834.045 698.5,841C 673.382,845.726 660.715,835.226 660.5,809.5C 660.11,794.256 666.776,783.589 680.5,777.5 Z"/></g>
<g><path style="opacity:1" fill="#3cc5fe" d="M 501.5,759.5 C 501.217,760.289 500.717,760.956 500,761.5C 499.5,793.832 499.333,826.165 499.5,858.5C 498.336,826.003 498.169,793.336 499,760.5C 499.671,759.748 500.504,759.414 501.5,759.5 Z"/></g>
<g><path style="opacity:1" fill="#052436" d="M 619.5,760.5 C 620.652,792.791 620.819,825.125 620,857.5C 613.916,858.642 607.749,858.809 601.5,858C 600.338,826.238 600.171,794.405 601,762.5C 601.5,762 602,761.5 602.5,761C 608.157,760.501 613.824,760.334 619.5,760.5 Z"/></g>
<g><path style="opacity:1" fill="#3cc1fe" d="M 300.5,857.5 C 300.953,858.458 301.619,859.292 302.5,860C 318.83,860.5 335.163,860.667 351.5,860.5C 336.212,861.655 319.545,861.822 301.5,861C 300.667,860.167 299.833,859.333 299,858.5C 298.333,826.167 298.333,793.833 299,761.5C 299.168,793.669 299.668,825.669 300.5,857.5 Z"/></g>
<g><path style="opacity:1" fill="#082132" d="M 424.5,759.5 C 432.507,759.334 440.507,759.5 448.5,760C 460.892,792.507 472.892,825.174 484.5,858C 484.095,858.945 483.428,859.612 482.5,860C 476.115,860.793 469.782,860.626 463.5,859.5C 460.183,853.549 457.849,847.216 456.5,840.5C 443.163,840.333 429.829,840.5 416.5,841C 414.366,847.068 412.033,853.068 409.5,859C 403.277,860.581 396.944,860.915 390.5,860C 389.328,859.581 388.328,858.915 387.5,858C 399.72,825.071 412.053,792.238 424.5,759.5 Z"/></g>
<g><path style="opacity:1" fill="#2e96df" d="M 435.5,783.5 C 437.117,785.121 438.284,787.121 439,789.5C 442.944,801.165 446.777,812.832 450.5,824.5C 440.81,824.832 431.144,824.498 421.5,823.5C 426.738,810.359 431.405,797.025 435.5,783.5 Z"/></g>
<g><path style="opacity:1" fill="#072335" d="M 344.5,759.5 C 369.857,763.657 378.024,777.657 369,801.5C 366.651,804.017 364.151,806.35 361.5,808.5C 378.594,816.943 383.094,829.943 375,847.5C 369.752,854.255 362.919,858.255 354.5,859.5C 337.098,858.827 319.598,858.16 302,857.5C 301.333,825.5 301.333,793.5 302,761.5C 316.265,760.841 330.431,760.175 344.5,759.5 Z"/></g>
<g><path style="opacity:1" fill="#34abec" d="M 321.5,818.5 C 331.247,818.08 340.914,818.58 350.5,820C 356.99,825.037 358.156,831.204 354,838.5C 352.421,840.041 350.587,841.208 348.5,842C 339.506,842.5 330.506,842.666 321.5,842.5C 321.5,834.5 321.5,826.5 321.5,818.5 Z"/></g>
<g><path style="opacity:1" fill="#2d94df" d="M 321.5,777.5 C 329.585,777.099 337.585,777.599 345.5,779C 352.94,783.623 354.44,789.789 350,797.5C 348.421,799.041 346.587,800.208 344.5,801C 336.841,801.5 329.174,801.666 321.5,801.5C 321.5,793.5 321.5,785.5 321.5,777.5 Z"/></g>
<g><path style="opacity:1" fill="#2b8fdb" d="M 323.5,820.5 C 332.173,820.334 340.84,820.5 349.5,821C 353.386,822.937 355.053,826.103 354.5,830.5C 355.053,834.897 353.386,838.063 349.5,840C 340.893,841.339 332.226,841.839 323.5,841.5C 323.5,834.5 323.5,827.5 323.5,820.5 Z"/></g>
</svg>
